<svg xmlns="http://www.w3.org/2000/svg" viewBox="0 0 32 32" width="32" height="32" style="image-rendering: pixelated; shape-rendering: crispEdges;">

  <rect x="8" y="6" width="16" height="1" fill="#020406" />
  <rect x="7" y="7" width="1" height="1" fill="#020406" />
  <rect x="8" y="7" width="16" height="1" fill="#8a8a92" />
  <rect x="24" y="7" width="1" height="1" fill="#020406" />
  <rect x="7" y="8" width="1" height="1" fill="#020406" />
  <rect x="8" y="8" width="1" height="1" fill="#8a8a92" />
  <rect x="9" y="8" width="6" height="1" fill="#f1c40f" />
  <rect x="15" y="8" width="2" height="1" fill="#8a8a92" />
  <rect x="17" y="8" width="6" height="1" fill="#f1c40f" />
  <rect x="23" y="8" width="1" height="1" fill="#8a8a92" />
  <rect x="24" y="8" width="1" height="1" fill="#020406" />
  <rect x="7" y="9" width="1" height="1" fill="#020406" />
  <rect x="8" y="9" width="1" height="1" fill="#8a8a92" />
  <rect x="9" y="9" width="6" height="1" fill="#f1c40f" />
  <rect x="15" y="9" width="2" height="1" fill="#8a8a92" />
  <rect x="17" y="9" width="6" height="1" fill="#f1c40f" />
  <rect x="23" y="9" width="1" height="1" fill="#8a8a92" />
  <rect x="24" y="9" width="1" height="1" fill="#020406" />
  <rect x="7" y="10" width="1" height="1" fill="#020406" />
  <rect x="8" y="10" width="1" height="1" fill="#8a8a92" />
  <rect x="9" y="10" width="6" height="1" fill="#f1c40f" />
  <rect x="15" y="10" width="2" height="1" fill="#8a8a92" />
  <rect x="17" y="10" width="6" height="1" fill="#f1c40f" />
  <rect x="23" y="10" width="1" height="1" fill="#8a8a92" />
  <rect x="24" y="10" width="1" height="1" fill="#020406" />
  <rect x="7" y="11" width="1" height="1" fill="#020406" />
  <rect x="8" y="11" width="16" height="1" fill="#8a8a92" />
  <rect x="24" y="11" width="1" height="1" fill="#020406" />
  <rect x="7" y="12" width="1" height="1" fill="#020406" />
  <rect x="8" y="12" width="16" height="1" fill="#8a8a92" />
  <rect x="24" y="12" width="1" height="1" fill="#020406" />
  <rect x="7" y="13" width="1" height="1" fill="#020406" />
  <rect x="8" y="13" width="16" height="1" fill="#8a8a92" />
  <rect x="24" y="13" width="1" height="1" fill="#020406" />
  <rect x="7" y="14" width="1" height="1" fill="#020406" />
  <rect x="8" y="14" width="16" height="1" fill="#8a8a92" />
  <rect x="24" y="14" width="1" height="1" fill="#020406" />
  <rect x="7" y="15" width="1" height="1" fill="#020406" />
  <rect x="8" y="15" width="16" height="1" fill="#8a8a92" />
  <rect x="24" y="15" width="1" height="1" fill="#020406" />
  <rect x="7" y="16" width="1" height="1" fill="#020406" />
  <rect x="8" y="16" width="16" height="1" fill="#8a8a92" />
  <rect x="24" y="16" width="1" height="1" fill="#020406" />
  <rect x="8" y="17" width="1" height="1" fill="#020406" />
  <rect x="9" y="17" width="1" height="1" fill="#4a4a52" />
  <rect x="10" y="17" width="1" height="1" fill="#020406" />
  <rect x="11" y="17" width="1" height="1" fill="#4a4a52" />
  <rect x="12" y="17" width="3" height="1" fill="#020406" />
  <rect x="15" y="17" width="2" height="1" fill="#4a4a52" />
  <rect x="17" y="17" width="3" height="1" fill="#020406" />
  <rect x="20" y="17" width="1" height="1" fill="#4a4a52" />
  <rect x="21" y="17" width="1" height="1" fill="#020406" />
  <rect x="22" y="17" width="1" height="1" fill="#4a4a52" />
  <rect x="23" y="17" width="1" height="1" fill="#020406" />
  <rect x="8" y="18" width="1" height="1" fill="#020406" />
  <rect x="9" y="18" width="1" height="1" fill="#4a4a52" />
  <rect x="10" y="18" width="2" height="1" fill="#020406" />
  <rect x="12" y="18" width="1" height="1" fill="#4a4a52" />
  <rect x="13" y="18" width="2" height="1" fill="#020406" />
  <rect x="15" y="18" width="2" height="1" fill="#4a4a52" />
  <rect x="17" y="18" width="2" height="1" fill="#020406" />
  <rect x="19" y="18" width="1" height="1" fill="#4a4a52" />
  <rect x="20" y="18" width="2" height="1" fill="#020406" />
  <rect x="22" y="18" width="1" height="1" fill="#4a4a52" />
  <rect x="23" y="18" width="1" height="1" fill="#020406" />
  <rect x="7" y="19" width="1" height="1" fill="#020406" />
  <rect x="8" y="19" width="2" height="1" fill="#4a4a52" />
  <rect x="10" y="19" width="1" height="1" fill="#020406" />
  <rect x="12" y="19" width="1" height="1" fill="#020406" />
  <rect x="13" y="19" width="2" height="1" fill="#4a4a52" />
  <rect x="15" y="19" width="2" height="1" fill="#020406" />
  <rect x="17" y="19" width="2" height="1" fill="#4a4a52" />
  <rect x="19" y="19" width="1" height="1" fill="#020406" />
  <rect x="21" y="19" width="1" height="1" fill="#020406" />
  <rect x="22" y="19" width="2" height="1" fill="#4a4a52" />
  <rect x="24" y="19" width="1" height="1" fill="#020406" />
  <rect x="7" y="20" width="1" height="1" fill="#020406" />
  <rect x="8" y="20" width="2" height="1" fill="#4a4a52" />
  <rect x="10" y="20" width="1" height="1" fill="#020406" />
  <rect x="12" y="20" width="1" height="1" fill="#020406" />
  <rect x="13" y="20" width="2" height="1" fill="#4a4a52" />
  <rect x="15" y="20" width="2" height="1" fill="#020406" />
  <rect x="17" y="20" width="2" height="1" fill="#4a4a52" />
  <rect x="19" y="20" width="1" height="1" fill="#020406" />
  <rect x="21" y="20" width="1" height="1" fill="#020406" />
  <rect x="22" y="20" width="2" height="1" fill="#4a4a52" />
  <rect x="24" y="20" width="1" height="1" fill="#020406" />
  <rect x="6" y="21" width="1" height="1" fill="#020406" />
  <rect x="7" y="21" width="1" height="1" fill="#4a4a52" />
  <rect x="8" y="21" width="2" height="1" fill="#020406" />
  <rect x="10" y="21" width="1" height="1" fill="#4a4a52" />
  <rect x="11" y="21" width="2" height="1" fill="#020406" />
  <rect x="13" y="21" width="1" height="1" fill="#4a4a52" />
  <rect x="14" y="21" width="1" height="1" fill="#020406" />
  <rect x="17" y="21" width="1" height="1" fill="#020406" />
  <rect x="18" y="21" width="1" height="1" fill="#4a4a52" />
  <rect x="19" y="21" width="2" height="1" fill="#020406" />
  <rect x="21" y="21" width="1" height="1" fill="#4a4a52" />
  <rect x="22" y="21" width="2" height="1" fill="#020406" />
  <rect x="24" y="21" width="1" height="1" fill="#4a4a52" />
  <rect x="25" y="21" width="1" height="1" fill="#020406" />
  <rect x="6" y="22" width="1" height="1" fill="#020406" />
  <rect x="7" y="22" width="1" height="1" fill="#4a4a52" />
  <rect x="8" y="22" width="2" height="1" fill="#020406" />
  <rect x="10" y="22" width="1" height="1" fill="#4a4a52" />
  <rect x="11" y="22" width="2" height="1" fill="#020406" />
  <rect x="13" y="22" width="1" height="1" fill="#4a4a52" />
  <rect x="14" y="22" width="1" height="1" fill="#020406" />
  <rect x="17" y="22" width="1" height="1" fill="#020406" />
  <rect x="18" y="22" width="1" height="1" fill="#4a4a52" />
  <rect x="19" y="22" width="2" height="1" fill="#020406" />
  <rect x="21" y="22" width="1" height="1" fill="#4a4a52" />
  <rect x="22" y="22" width="2" height="1" fill="#020406" />
  <rect x="24" y="22" width="1" height="1" fill="#4a4a52" />
  <rect x="25" y="22" width="1" height="1" fill="#020406" />
  <rect x="6" y="23" width="1" height="1" fill="#020406" />
  <rect x="7" y="23" width="1" height="1" fill="#4a4a52" />
  <rect x="8" y="23" width="1" height="1" fill="#020406" />
  <rect x="10" y="23" width="1" height="1" fill="#020406" />
  <rect x="11" y="23" width="3" height="1" fill="#4a4a52" />
  <rect x="14" y="23" width="1" height="1" fill="#020406" />
  <rect x="17" y="23" width="1" height="1" fill="#020406" />
  <rect x="18" y="23" width="3" height="1" fill="#4a4a52" />
  <rect x="21" y="23" width="1" height="1" fill="#020406" />
  <rect x="23" y="23" width="1" height="1" fill="#020406" />
  <rect x="24" y="23" width="1" height="1" fill="#4a4a52" />
  <rect x="25" y="23" width="1" height="1" fill="#020406" />
  <rect x="7" y="24" width="1" height="1" fill="#020406" />
  <rect x="8" y="24" width="1" height="1" fill="#4a4a52" />
  <rect x="9" y="24" width="2" height="1" fill="#020406" />
  <rect x="11" y="24" width="3" height="1" fill="#4a4a52" />
  <rect x="14" y="24" width="1" height="1" fill="#020406" />
  <rect x="17" y="24" width="1" height="1" fill="#020406" />
  <rect x="18" y="24" width="3" height="1" fill="#4a4a52" />
  <rect x="21" y="24" width="2" height="1" fill="#020406" />
  <rect x="23" y="24" width="1" height="1" fill="#4a4a52" />
  <rect x="24" y="24" width="1" height="1" fill="#020406" />
  <rect x="7" y="25" width="1" height="1" fill="#020406" />
  <rect x="8" y="25" width="1" height="1" fill="#4a4a52" />
  <rect x="9" y="25" width="2" height="1" fill="#020406" />
  <rect x="11" y="25" width="1" height="1" fill="#4a4a52" />
  <rect x="12" y="25" width="2" height="1" fill="#020406" />
  <rect x="14" y="25" width="1" height="1" fill="#4a4a52" />
  <rect x="15" y="25" width="2" height="1" fill="#020406" />
  <rect x="17" y="25" width="1" height="1" fill="#4a4a52" />
  <rect x="18" y="25" width="2" height="1" fill="#020406" />
  <rect x="20" y="25" width="1" height="1" fill="#4a4a52" />
  <rect x="21" y="25" width="2" height="1" fill="#020406" />
  <rect x="23" y="25" width="1" height="1" fill="#4a4a52" />
  <rect x="24" y="25" width="1" height="1" fill="#020406" />
  <rect x="8" y="26" width="1" height="1" fill="#020406" />
  <rect x="9" y="26" width="3" height="1" fill="#4a4a52" />
  <rect x="12" y="26" width="1" height="1" fill="#020406" />
  <rect x="14" y="26" width="1" height="1" fill="#020406" />
  <rect x="15" y="26" width="2" height="1" fill="#4a4a52" />
  <rect x="17" y="26" width="1" height="1" fill="#020406" />
  <rect x="19" y="26" width="1" height="1" fill="#020406" />
  <rect x="20" y="26" width="3" height="1" fill="#4a4a52" />
  <rect x="23" y="26" width="1" height="1" fill="#020406" />
  <rect x="8" y="27" width="1" height="1" fill="#020406" />
  <rect x="9" y="27" width="3" height="1" fill="#4a4a52" />
  <rect x="12" y="27" width="1" height="1" fill="#020406" />
  <rect x="14" y="27" width="1" height="1" fill="#020406" />
  <rect x="15" y="27" width="2" height="1" fill="#4a4a52" />
  <rect x="17" y="27" width="1" height="1" fill="#020406" />
  <rect x="19" y="27" width="1" height="1" fill="#020406" />
  <rect x="20" y="27" width="3" height="1" fill="#4a4a52" />
  <rect x="23" y="27" width="1" height="1" fill="#020406" />
  <rect x="9" y="28" width="3" height="1" fill="#020406" />
  <rect x="15" y="28" width="2" height="1" fill="#020406" />
  <rect x="20" y="28" width="3" height="1" fill="#020406" />
</svg>