<svg xmlns="http://www.w3.org/2000/svg" viewBox="0 0 32 32" width="32" height="32" style="image-rendering: pixelated; shape-rendering: crispEdges;">

  <defs>
    <filter id="bossGlow" x="-20%" y="-20%" width="140%" height="140%">
      <feGaussianBlur stdDeviation="1.5" result="blur" />
      <feComposite in="SourceGraphic" in2="blur" operator="over" />
    </filter>
  </defs>
  <circle cx="16" cy="16" r="13" fill="none" stroke="#ff1a1a" stroke-width="1.5" opacity="0.35" stroke-dasharray="2 2" filter="url(#bossGlow)" />
  <circle cx="16" cy="16" r="15" fill="none" stroke="#ff1a1a" stroke-width="0.5" opacity="0.15" />

  <rect x="10" y="7" width="12" height="1" fill="#020406" />
  <rect x="9" y="8" width="1" height="1" fill="#020406" />
  <rect x="10" y="8" width="12" height="1" fill="#4d98ca" />
  <rect x="22" y="8" width="1" height="1" fill="#020406" />
  <rect x="9" y="9" width="1" height="1" fill="#020406" />
  <rect x="10" y="9" width="12" height="1" fill="#4d98ca" />
  <rect x="22" y="9" width="1" height="1" fill="#020406" />
  <rect x="9" y="10" width="1" height="1" fill="#020406" />
  <rect x="10" y="10" width="3" height="1" fill="#4d98ca" />
  <rect x="13" y="10" width="1" height="1" fill="#ff1a1a" />
  <rect x="14" y="10" width="4" height="1" fill="#4d98ca" />
  <rect x="18" y="10" width="1" height="1" fill="#ff1a1a" />
  <rect x="19" y="10" width="3" height="1" fill="#4d98ca" />
  <rect x="22" y="10" width="1" height="1" fill="#020406" />
  <rect x="9" y="11" width="1" height="1" fill="#020406" />
  <rect x="10" y="11" width="12" height="1" fill="#4d98ca" />
  <rect x="22" y="11" width="1" height="1" fill="#020406" />
  <rect x="9" y="12" width="1" height="1" fill="#020406" />
  <rect x="10" y="12" width="12" height="1" fill="#4d98ca" />
  <rect x="22" y="12" width="1" height="1" fill="#020406" />
  <rect x="9" y="13" width="1" height="1" fill="#020406" />
  <rect x="10" y="13" width="12" height="1" fill="#4d98ca" />
  <rect x="22" y="13" width="1" height="1" fill="#020406" />
  <rect x="9" y="14" width="1" height="1" fill="#020406" />
  <rect x="10" y="14" width="12" height="1" fill="#4d98ca" />
  <rect x="22" y="14" width="1" height="1" fill="#020406" />
  <rect x="10" y="15" width="2" height="1" fill="#020406" />
  <rect x="12" y="15" width="8" height="1" fill="#4d98ca" />
  <rect x="20" y="15" width="2" height="1" fill="#020406" />
  <rect x="11" y="16" width="1" height="1" fill="#020406" />
  <rect x="12" y="16" width="8" height="1" fill="#4d98ca" />
  <rect x="20" y="16" width="1" height="1" fill="#020406" />
  <rect x="8" y="17" width="1" height="1" fill="#020406" />
  <rect x="11" y="17" width="1" height="1" fill="#020406" />
  <rect x="12" y="17" width="8" height="1" fill="#4d98ca" />
  <rect x="20" y="17" width="1" height="1" fill="#020406" />
  <rect x="23" y="17" width="1" height="1" fill="#020406" />
  <rect x="7" y="18" width="1" height="1" fill="#020406" />
  <rect x="8" y="18" width="1" height="1" fill="#41799e" />
  <rect x="9" y="18" width="1" height="1" fill="#020406" />
  <rect x="11" y="18" width="1" height="1" fill="#020406" />
  <rect x="12" y="18" width="8" height="1" fill="#4d98ca" />
  <rect x="20" y="18" width="1" height="1" fill="#020406" />
  <rect x="22" y="18" width="1" height="1" fill="#020406" />
  <rect x="23" y="18" width="1" height="1" fill="#41799e" />
  <rect x="24" y="18" width="1" height="1" fill="#020406" />
  <rect x="6" y="19" width="1" height="1" fill="#020406" />
  <rect x="7" y="19" width="1" height="1" fill="#41799e" />
  <rect x="8" y="19" width="1" height="1" fill="#020406" />
  <rect x="11" y="19" width="1" height="1" fill="#020406" />
  <rect x="12" y="19" width="8" height="1" fill="#4d98ca" />
  <rect x="20" y="19" width="1" height="1" fill="#020406" />
  <rect x="23" y="19" width="1" height="1" fill="#020406" />
  <rect x="24" y="19" width="1" height="1" fill="#41799e" />
  <rect x="25" y="19" width="1" height="1" fill="#020406" />
  <rect x="5" y="20" width="1" height="1" fill="#020406" />
  <rect x="6" y="20" width="1" height="1" fill="#41799e" />
  <rect x="7" y="20" width="1" height="1" fill="#020406" />
  <rect x="11" y="20" width="1" height="1" fill="#020406" />
  <rect x="12" y="20" width="8" height="1" fill="#4d98ca" />
  <rect x="20" y="20" width="1" height="1" fill="#020406" />
  <rect x="24" y="20" width="1" height="1" fill="#020406" />
  <rect x="25" y="20" width="1" height="1" fill="#41799e" />
  <rect x="26" y="20" width="1" height="1" fill="#020406" />
  <rect x="6" y="21" width="1" height="1" fill="#020406" />
  <rect x="11" y="21" width="1" height="1" fill="#020406" />
  <rect x="12" y="21" width="8" height="1" fill="#4d98ca" />
  <rect x="20" y="21" width="1" height="1" fill="#020406" />
  <rect x="25" y="21" width="1" height="1" fill="#020406" />
  <rect x="11" y="22" width="1" height="1" fill="#020406" />
  <rect x="12" y="22" width="8" height="1" fill="#4d98ca" />
  <rect x="20" y="22" width="1" height="1" fill="#020406" />
  <rect x="11" y="23" width="1" height="1" fill="#020406" />
  <rect x="12" y="23" width="8" height="1" fill="#4d98ca" />
  <rect x="20" y="23" width="1" height="1" fill="#020406" />
  <rect x="11" y="24" width="1" height="1" fill="#020406" />
  <rect x="12" y="24" width="8" height="1" fill="#4d98ca" />
  <rect x="20" y="24" width="1" height="1" fill="#020406" />
  <rect x="11" y="25" width="1" height="1" fill="#020406" />
  <rect x="12" y="25" width="8" height="1" fill="#4d98ca" />
  <rect x="20" y="25" width="1" height="1" fill="#020406" />
  <rect x="11" y="26" width="1" height="1" fill="#020406" />
  <rect x="12" y="26" width="8" height="1" fill="#4d98ca" />
  <rect x="20" y="26" width="1" height="1" fill="#020406" />
  <rect x="11" y="27" width="1" height="1" fill="#020406" />
  <rect x="12" y="27" width="8" height="1" fill="#4d98ca" />
  <rect x="20" y="27" width="1" height="1" fill="#020406" />
  <rect x="12" y="28" width="8" height="1" fill="#020406" />
</svg>