<svg xmlns="http://www.w3.org/2000/svg" viewBox="0 0 32 32" width="32" height="32" style="image-rendering: pixelated; shape-rendering: crispEdges;">

  <defs>
    <filter id="bossGlow" x="-20%" y="-20%" width="140%" height="140%">
      <feGaussianBlur stdDeviation="1.5" result="blur" />
      <feComposite in="SourceGraphic" in2="blur" operator="over" />
    </filter>
  </defs>
  <circle cx="16" cy="16" r="13" fill="none" stroke="#ff1a1a" stroke-width="1.5" opacity="0.35" stroke-dasharray="2 2" filter="url(#bossGlow)" />
  <circle cx="16" cy="16" r="15" fill="none" stroke="#ff1a1a" stroke-width="0.5" opacity="0.15" />

  <rect x="11" y="4" width="10" height="1" fill="#020406" />
  <rect x="10" y="5" width="1" height="1" fill="#020406" />
  <rect x="11" y="5" width="10" height="1" fill="#ffffff" />
  <rect x="21" y="5" width="1" height="1" fill="#020406" />
  <rect x="10" y="6" width="1" height="1" fill="#020406" />
  <rect x="11" y="6" width="10" height="1" fill="#ffffff" />
  <rect x="21" y="6" width="1" height="1" fill="#020406" />
  <rect x="10" y="7" width="1" height="1" fill="#020406" />
  <rect x="11" y="7" width="10" height="1" fill="#ffffff" />
  <rect x="21" y="7" width="1" height="1" fill="#020406" />
  <rect x="10" y="8" width="1" height="1" fill="#020406" />
  <rect x="11" y="8" width="10" height="1" fill="#ffffff" />
  <rect x="21" y="8" width="1" height="1" fill="#020406" />
  <rect x="10" y="9" width="1" height="1" fill="#020406" />
  <rect x="11" y="9" width="2" height="1" fill="#ffffff" />
  <rect x="13" y="9" width="1" height="1" fill="#ff1a1a" />
  <rect x="14" y="9" width="4" height="1" fill="#ffffff" />
  <rect x="18" y="9" width="1" height="1" fill="#ff1a1a" />
  <rect x="19" y="9" width="2" height="1" fill="#ffffff" />
  <rect x="21" y="9" width="1" height="1" fill="#020406" />
  <rect x="10" y="10" width="1" height="1" fill="#020406" />
  <rect x="11" y="10" width="10" height="1" fill="#ffffff" />
  <rect x="21" y="10" width="1" height="1" fill="#020406" />
  <rect x="11" y="11" width="1" height="1" fill="#020406" />
  <rect x="12" y="11" width="8" height="1" fill="#ffffff" />
  <rect x="20" y="11" width="1" height="1" fill="#020406" />
  <rect x="11" y="12" width="1" height="1" fill="#020406" />
  <rect x="12" y="12" width="8" height="1" fill="#ffffff" />
  <rect x="20" y="12" width="1" height="1" fill="#020406" />
  <rect x="8" y="13" width="3" height="1" fill="#020406" />
  <rect x="12" y="13" width="8" height="1" fill="#020406" />
  <rect x="21" y="13" width="3" height="1" fill="#020406" />
  <rect x="7" y="14" width="1" height="1" fill="#020406" />
  <rect x="8" y="14" width="3" height="1" fill="#d7a56a" />
  <rect x="11" y="14" width="1" height="1" fill="#020406" />
  <rect x="12" y="14" width="8" height="1" fill="#d5dbdb" />
  <rect x="20" y="14" width="1" height="1" fill="#020406" />
  <rect x="21" y="14" width="3" height="1" fill="#d7a56a" />
  <rect x="24" y="14" width="1" height="1" fill="#020406" />
  <rect x="7" y="15" width="1" height="1" fill="#020406" />
  <rect x="8" y="15" width="3" height="1" fill="#d7a56a" />
  <rect x="11" y="15" width="1" height="1" fill="#020406" />
  <rect x="12" y="15" width="8" height="1" fill="#d5dbdb" />
  <rect x="20" y="15" width="1" height="1" fill="#020406" />
  <rect x="21" y="15" width="3" height="1" fill="#d7a56a" />
  <rect x="24" y="15" width="1" height="1" fill="#020406" />
  <rect x="7" y="16" width="1" height="1" fill="#020406" />
  <rect x="8" y="16" width="3" height="1" fill="#d7a56a" />
  <rect x="11" y="16" width="10" height="1" fill="#ffffff" />
  <rect x="21" y="16" width="3" height="1" fill="#d7a56a" />
  <rect x="24" y="16" width="1" height="1" fill="#020406" />
  <rect x="7" y="17" width="1" height="1" fill="#020406" />
  <rect x="8" y="17" width="3" height="1" fill="#d7a56a" />
  <rect x="11" y="17" width="10" height="1" fill="#ffffff" />
  <rect x="21" y="17" width="3" height="1" fill="#d7a56a" />
  <rect x="24" y="17" width="1" height="1" fill="#020406" />
  <rect x="7" y="18" width="1" height="1" fill="#020406" />
  <rect x="8" y="18" width="3" height="1" fill="#d7a56a" />
  <rect x="11" y="18" width="10" height="1" fill="#020406" />
  <rect x="21" y="18" width="3" height="1" fill="#d7a56a" />
  <rect x="24" y="18" width="1" height="1" fill="#020406" />
  <rect x="7" y="19" width="1" height="1" fill="#020406" />
  <rect x="8" y="19" width="3" height="1" fill="#d7a56a" />
  <rect x="11" y="19" width="10" height="1" fill="#ffffff" />
  <rect x="21" y="19" width="3" height="1" fill="#d7a56a" />
  <rect x="24" y="19" width="1" height="1" fill="#020406" />
  <rect x="7" y="20" width="1" height="1" fill="#020406" />
  <rect x="8" y="20" width="3" height="1" fill="#d7a56a" />
  <rect x="11" y="20" width="10" height="1" fill="#ffffff" />
  <rect x="21" y="20" width="3" height="1" fill="#d7a56a" />
  <rect x="24" y="20" width="1" height="1" fill="#020406" />
  <rect x="7" y="21" width="1" height="1" fill="#020406" />
  <rect x="8" y="21" width="3" height="1" fill="#d7a56a" />
  <rect x="11" y="21" width="10" height="1" fill="#020406" />
  <rect x="21" y="21" width="3" height="1" fill="#d7a56a" />
  <rect x="24" y="21" width="1" height="1" fill="#020406" />
  <rect x="7" y="22" width="1" height="1" fill="#020406" />
  <rect x="8" y="22" width="3" height="1" fill="#d7a56a" />
  <rect x="11" y="22" width="10" height="1" fill="#ffffff" />
  <rect x="21" y="22" width="3" height="1" fill="#d7a56a" />
  <rect x="24" y="22" width="1" height="1" fill="#020406" />
  <rect x="7" y="23" width="1" height="1" fill="#020406" />
  <rect x="8" y="23" width="3" height="1" fill="#d7a56a" />
  <rect x="11" y="23" width="10" height="1" fill="#ffffff" />
  <rect x="21" y="23" width="3" height="1" fill="#d7a56a" />
  <rect x="24" y="23" width="1" height="1" fill="#020406" />
  <rect x="7" y="24" width="1" height="1" fill="#020406" />
  <rect x="8" y="24" width="3" height="1" fill="#d7a56a" />
  <rect x="11" y="24" width="10" height="1" fill="#020406" />
  <rect x="21" y="24" width="3" height="1" fill="#d7a56a" />
  <rect x="24" y="24" width="1" height="1" fill="#020406" />
  <rect x="7" y="25" width="1" height="1" fill="#020406" />
  <rect x="8" y="25" width="3" height="1" fill="#d7a56a" />
  <rect x="11" y="25" width="1" height="1" fill="#020406" />
  <rect x="20" y="25" width="1" height="1" fill="#020406" />
  <rect x="21" y="25" width="3" height="1" fill="#d7a56a" />
  <rect x="24" y="25" width="1" height="1" fill="#020406" />
  <rect x="7" y="26" width="1" height="1" fill="#020406" />
  <rect x="8" y="26" width="3" height="1" fill="#d7a56a" />
  <rect x="11" y="26" width="1" height="1" fill="#020406" />
  <rect x="20" y="26" width="1" height="1" fill="#020406" />
  <rect x="21" y="26" width="3" height="1" fill="#d7a56a" />
  <rect x="24" y="26" width="1" height="1" fill="#020406" />
  <rect x="8" y="27" width="3" height="1" fill="#020406" />
  <rect x="21" y="27" width="3" height="1" fill="#020406" />
</svg>