<svg xmlns="http://www.w3.org/2000/svg" viewBox="0 0 32 32" width="32" height="32" style="image-rendering: pixelated; shape-rendering: crispEdges;">

  <defs>
    <filter id="bossGlow" x="-20%" y="-20%" width="140%" height="140%">
      <feGaussianBlur stdDeviation="1.5" result="blur" />
      <feComposite in="SourceGraphic" in2="blur" operator="over" />
    </filter>
  </defs>
  <circle cx="16" cy="16" r="13" fill="none" stroke="#ff1a1a" stroke-width="1.5" opacity="0.35" stroke-dasharray="2 2" filter="url(#bossGlow)" />
  <circle cx="16" cy="16" r="15" fill="none" stroke="#ff1a1a" stroke-width="0.5" opacity="0.15" />

  <rect x="13" y="5" width="6" height="1" fill="#020406" />
  <rect x="12" y="6" width="1" height="1" fill="#020406" />
  <rect x="13" y="6" width="6" height="1" fill="#39ae97" />
  <rect x="19" y="6" width="1" height="1" fill="#020406" />
  <rect x="12" y="7" width="1" height="1" fill="#020406" />
  <rect x="13" y="7" width="6" height="1" fill="#39ae97" />
  <rect x="19" y="7" width="1" height="1" fill="#020406" />
  <rect x="6" y="8" width="1" height="1" fill="#020406" />
  <rect x="12" y="8" width="1" height="1" fill="#020406" />
  <rect x="13" y="8" width="6" height="1" fill="#39ae97" />
  <rect x="19" y="8" width="1" height="1" fill="#020406" />
  <rect x="25" y="8" width="1" height="1" fill="#020406" />
  <rect x="5" y="9" width="1" height="1" fill="#020406" />
  <rect x="6" y="9" width="1" height="1" fill="#d5dbdb" />
  <rect x="7" y="9" width="1" height="1" fill="#020406" />
  <rect x="11" y="9" width="2" height="1" fill="#020406" />
  <rect x="13" y="9" width="6" height="1" fill="#39ae97" />
  <rect x="19" y="9" width="2" height="1" fill="#020406" />
  <rect x="24" y="9" width="1" height="1" fill="#020406" />
  <rect x="25" y="9" width="1" height="1" fill="#d5dbdb" />
  <rect x="26" y="9" width="1" height="1" fill="#020406" />
  <rect x="6" y="10" width="1" height="1" fill="#020406" />
  <rect x="7" y="10" width="1" height="1" fill="#d5dbdb" />
  <rect x="8" y="10" width="1" height="1" fill="#020406" />
  <rect x="10" y="10" width="1" height="1" fill="#020406" />
  <rect x="11" y="10" width="10" height="1" fill="#4c5b6a" />
  <rect x="21" y="10" width="1" height="1" fill="#020406" />
  <rect x="23" y="10" width="1" height="1" fill="#020406" />
  <rect x="24" y="10" width="1" height="1" fill="#d5dbdb" />
  <rect x="25" y="10" width="1" height="1" fill="#020406" />
  <rect x="7" y="11" width="1" height="1" fill="#020406" />
  <rect x="8" y="11" width="1" height="1" fill="#d5dbdb" />
  <rect x="9" y="11" width="2" height="1" fill="#020406" />
  <rect x="11" y="11" width="2" height="1" fill="#4c5b6a" />
  <rect x="13" y="11" width="1" height="1" fill="#ff1a1a" />
  <rect x="14" y="11" width="4" height="1" fill="#4c5b6a" />
  <rect x="18" y="11" width="1" height="1" fill="#ff1a1a" />
  <rect x="19" y="11" width="2" height="1" fill="#4c5b6a" />
  <rect x="21" y="11" width="2" height="1" fill="#020406" />
  <rect x="23" y="11" width="1" height="1" fill="#d5dbdb" />
  <rect x="24" y="11" width="1" height="1" fill="#020406" />
  <rect x="8" y="12" width="1" height="1" fill="#020406" />
  <rect x="9" y="12" width="1" height="1" fill="#d5dbdb" />
  <rect x="10" y="12" width="1" height="1" fill="#020406" />
  <rect x="11" y="12" width="3" height="1" fill="#4c5b6a" />
  <rect x="14" y="12" width="1" height="1" fill="#ff1a1a" />
  <rect x="15" y="12" width="2" height="1" fill="#4c5b6a" />
  <rect x="17" y="12" width="1" height="1" fill="#ff1a1a" />
  <rect x="18" y="12" width="3" height="1" fill="#4c5b6a" />
  <rect x="21" y="12" width="1" height="1" fill="#020406" />
  <rect x="22" y="12" width="1" height="1" fill="#d5dbdb" />
  <rect x="23" y="12" width="1" height="1" fill="#020406" />
  <rect x="9" y="13" width="2" height="1" fill="#020406" />
  <rect x="11" y="13" width="10" height="1" fill="#4c5b6a" />
  <rect x="21" y="13" width="2" height="1" fill="#020406" />
  <rect x="9" y="14" width="2" height="1" fill="#020406" />
  <rect x="11" y="14" width="10" height="1" fill="#4c5b6a" />
  <rect x="21" y="14" width="2" height="1" fill="#020406" />
  <rect x="8" y="15" width="1" height="1" fill="#020406" />
  <rect x="9" y="15" width="2" height="1" fill="#d5dbdb" />
  <rect x="11" y="15" width="2" height="1" fill="#4c5b6a" />
  <rect x="13" y="15" width="1" height="1" fill="#d5dbdb" />
  <rect x="14" y="15" width="4" height="1" fill="#4c5b6a" />
  <rect x="18" y="15" width="1" height="1" fill="#d5dbdb" />
  <rect x="19" y="15" width="2" height="1" fill="#4c5b6a" />
  <rect x="21" y="15" width="2" height="1" fill="#d5dbdb" />
  <rect x="23" y="15" width="1" height="1" fill="#020406" />
  <rect x="7" y="16" width="1" height="1" fill="#020406" />
  <rect x="8" y="16" width="1" height="1" fill="#d5dbdb" />
  <rect x="9" y="16" width="2" height="1" fill="#020406" />
  <rect x="11" y="16" width="2" height="1" fill="#4c5b6a" />
  <rect x="13" y="16" width="1" height="1" fill="#d5dbdb" />
  <rect x="14" y="16" width="4" height="1" fill="#4c5b6a" />
  <rect x="18" y="16" width="1" height="1" fill="#d5dbdb" />
  <rect x="19" y="16" width="2" height="1" fill="#4c5b6a" />
  <rect x="21" y="16" width="2" height="1" fill="#020406" />
  <rect x="23" y="16" width="1" height="1" fill="#d5dbdb" />
  <rect x="24" y="16" width="1" height="1" fill="#020406" />
  <rect x="6" y="17" width="1" height="1" fill="#020406" />
  <rect x="7" y="17" width="1" height="1" fill="#d5dbdb" />
  <rect x="8" y="17" width="1" height="1" fill="#020406" />
  <rect x="10" y="17" width="1" height="1" fill="#020406" />
  <rect x="11" y="17" width="3" height="1" fill="#4c5b6a" />
  <rect x="14" y="17" width="1" height="1" fill="#d5dbdb" />
  <rect x="15" y="17" width="2" height="1" fill="#4c5b6a" />
  <rect x="17" y="17" width="1" height="1" fill="#d5dbdb" />
  <rect x="18" y="17" width="3" height="1" fill="#4c5b6a" />
  <rect x="21" y="17" width="1" height="1" fill="#020406" />
  <rect x="23" y="17" width="1" height="1" fill="#020406" />
  <rect x="24" y="17" width="1" height="1" fill="#d5dbdb" />
  <rect x="25" y="17" width="1" height="1" fill="#020406" />
  <rect x="7" y="18" width="1" height="1" fill="#020406" />
  <rect x="10" y="18" width="1" height="1" fill="#020406" />
  <rect x="11" y="18" width="4" height="1" fill="#4c5b6a" />
  <rect x="15" y="18" width="2" height="1" fill="#d5dbdb" />
  <rect x="17" y="18" width="4" height="1" fill="#4c5b6a" />
  <rect x="21" y="18" width="1" height="1" fill="#020406" />
  <rect x="24" y="18" width="1" height="1" fill="#020406" />
  <rect x="10" y="19" width="1" height="1" fill="#020406" />
  <rect x="11" y="19" width="10" height="1" fill="#4c5b6a" />
  <rect x="21" y="19" width="1" height="1" fill="#020406" />
  <rect x="10" y="20" width="1" height="1" fill="#020406" />
  <rect x="11" y="20" width="10" height="1" fill="#4c5b6a" />
  <rect x="21" y="20" width="1" height="1" fill="#020406" />
  <rect x="10" y="21" width="1" height="1" fill="#020406" />
  <rect x="11" y="21" width="10" height="1" fill="#4c5b6a" />
  <rect x="21" y="21" width="1" height="1" fill="#020406" />
  <rect x="11" y="22" width="10" height="1" fill="#020406" />
</svg>