<svg xmlns="http://www.w3.org/2000/svg" viewBox="0 0 32 32" width="32" height="32" style="image-rendering: pixelated; shape-rendering: crispEdges;">

  <rect x="11" y="7" width="10" height="1" fill="#020406" />
  <rect x="10" y="8" width="1" height="1" fill="#020406" />
  <rect x="11" y="8" width="10" height="1" fill="#8a8a92" />
  <rect x="21" y="8" width="1" height="1" fill="#020406" />
  <rect x="10" y="9" width="1" height="1" fill="#020406" />
  <rect x="11" y="9" width="10" height="1" fill="#8a8a92" />
  <rect x="21" y="9" width="1" height="1" fill="#020406" />
  <rect x="9" y="10" width="1" height="1" fill="#020406" />
  <rect x="10" y="10" width="1" height="1" fill="#ff3333" />
  <rect x="11" y="10" width="10" height="1" fill="#8a8a92" />
  <rect x="21" y="10" width="1" height="1" fill="#ff3333" />
  <rect x="22" y="10" width="1" height="1" fill="#020406" />
  <rect x="10" y="11" width="1" height="1" fill="#020406" />
  <rect x="11" y="11" width="10" height="1" fill="#8a8a92" />
  <rect x="21" y="11" width="1" height="1" fill="#020406" />
  <rect x="10" y="12" width="1" height="1" fill="#020406" />
  <rect x="11" y="12" width="10" height="1" fill="#8a8a92" />
  <rect x="21" y="12" width="1" height="1" fill="#020406" />
  <rect x="9" y="13" width="2" height="1" fill="#020406" />
  <rect x="11" y="13" width="10" height="1" fill="#8a8a92" />
  <rect x="21" y="13" width="2" height="1" fill="#020406" />
  <rect x="8" y="14" width="1" height="1" fill="#020406" />
  <rect x="9" y="14" width="14" height="1" fill="#8a8a92" />
  <rect x="23" y="14" width="1" height="1" fill="#020406" />
  <rect x="8" y="15" width="1" height="1" fill="#020406" />
  <rect x="9" y="15" width="14" height="1" fill="#8a8a92" />
  <rect x="23" y="15" width="1" height="1" fill="#020406" />
  <rect x="8" y="16" width="1" height="1" fill="#020406" />
  <rect x="9" y="16" width="14" height="1" fill="#8a8a92" />
  <rect x="23" y="16" width="1" height="1" fill="#020406" />
  <rect x="8" y="17" width="1" height="1" fill="#020406" />
  <rect x="9" y="17" width="14" height="1" fill="#8a8a92" />
  <rect x="23" y="17" width="1" height="1" fill="#020406" />
  <rect x="8" y="18" width="1" height="1" fill="#020406" />
  <rect x="9" y="18" width="14" height="1" fill="#8a8a92" />
  <rect x="23" y="18" width="1" height="1" fill="#020406" />
  <rect x="8" y="19" width="1" height="1" fill="#020406" />
  <rect x="9" y="19" width="14" height="1" fill="#8a8a92" />
  <rect x="23" y="19" width="1" height="1" fill="#020406" />
  <rect x="8" y="20" width="1" height="1" fill="#020406" />
  <rect x="9" y="20" width="14" height="1" fill="#8a8a92" />
  <rect x="23" y="20" width="1" height="1" fill="#020406" />
  <rect x="8" y="21" width="1" height="1" fill="#020406" />
  <rect x="9" y="21" width="14" height="1" fill="#8a8a92" />
  <rect x="23" y="21" width="1" height="1" fill="#020406" />
  <rect x="8" y="22" width="1" height="1" fill="#020406" />
  <rect x="9" y="22" width="14" height="1" fill="#8a8a92" />
  <rect x="23" y="22" width="1" height="1" fill="#020406" />
  <rect x="8" y="23" width="1" height="1" fill="#020406" />
  <rect x="9" y="23" width="14" height="1" fill="#8a8a92" />
  <rect x="23" y="23" width="1" height="1" fill="#020406" />
  <rect x="8" y="24" width="1" height="1" fill="#020406" />
  <rect x="9" y="24" width="14" height="1" fill="#8a8a92" />
  <rect x="23" y="24" width="1" height="1" fill="#020406" />
  <rect x="8" y="25" width="1" height="1" fill="#020406" />
  <rect x="9" y="25" width="14" height="1" fill="#8a8a92" />
  <rect x="23" y="25" width="1" height="1" fill="#020406" />
  <rect x="9" y="26" width="14" height="1" fill="#020406" />
</svg>