<svg xmlns="http://www.w3.org/2000/svg" viewBox="0 0 32 32" width="32" height="32" style="image-rendering: pixelated; shape-rendering: crispEdges;">

  <rect x="10" y="10" width="12" height="1" fill="#020406" />
  <rect x="9" y="11" width="1" height="1" fill="#020406" />
  <rect x="10" y="11" width="12" height="1" fill="#4a4a52" />
  <rect x="22" y="11" width="1" height="1" fill="#020406" />
  <rect x="8" y="12" width="2" height="1" fill="#020406" />
  <rect x="10" y="12" width="12" height="1" fill="#4a4a52" />
  <rect x="22" y="12" width="2" height="1" fill="#020406" />
  <rect x="7" y="13" width="1" height="1" fill="#020406" />
  <rect x="8" y="13" width="16" height="1" fill="#8a8a92" />
  <rect x="24" y="13" width="1" height="1" fill="#020406" />
  <rect x="7" y="14" width="1" height="1" fill="#020406" />
  <rect x="8" y="14" width="4" height="1" fill="#f1c40f" />
  <rect x="12" y="14" width="8" height="1" fill="#8a8a92" />
  <rect x="20" y="14" width="4" height="1" fill="#f1c40f" />
  <rect x="24" y="14" width="1" height="1" fill="#020406" />
  <rect x="6" y="15" width="2" height="1" fill="#020406" />
  <rect x="8" y="15" width="16" height="1" fill="#8a8a92" />
  <rect x="24" y="15" width="2" height="1" fill="#020406" />
  <rect x="5" y="16" width="1" height="1" fill="#020406" />
  <rect x="6" y="16" width="20" height="1" fill="#8a8a92" />
  <rect x="26" y="16" width="1" height="1" fill="#020406" />
  <rect x="5" y="17" width="1" height="1" fill="#020406" />
  <rect x="6" y="17" width="20" height="1" fill="#8a8a92" />
  <rect x="26" y="17" width="1" height="1" fill="#020406" />
  <rect x="5" y="18" width="1" height="1" fill="#020406" />
  <rect x="6" y="18" width="5" height="1" fill="#8a8a92" />
  <rect x="11" y="18" width="1" height="1" fill="#f1c40f" />
  <rect x="12" y="18" width="1" height="1" fill="#ff3333" />
  <rect x="13" y="18" width="1" height="1" fill="#8a8a92" />
  <rect x="14" y="18" width="1" height="1" fill="#f1c40f" />
  <rect x="15" y="18" width="2" height="1" fill="#ff3333" />
  <rect x="17" y="18" width="1" height="1" fill="#f1c40f" />
  <rect x="18" y="18" width="1" height="1" fill="#8a8a92" />
  <rect x="19" y="18" width="1" height="1" fill="#ff3333" />
  <rect x="20" y="18" width="1" height="1" fill="#f1c40f" />
  <rect x="21" y="18" width="5" height="1" fill="#8a8a92" />
  <rect x="26" y="18" width="1" height="1" fill="#020406" />
  <rect x="5" y="19" width="1" height="1" fill="#020406" />
  <rect x="6" y="19" width="20" height="1" fill="#8a8a92" />
  <rect x="26" y="19" width="1" height="1" fill="#020406" />
  <rect x="5" y="20" width="1" height="1" fill="#020406" />
  <rect x="6" y="20" width="20" height="1" fill="#8a8a92" />
  <rect x="26" y="20" width="1" height="1" fill="#020406" />
  <rect x="5" y="21" width="1" height="1" fill="#020406" />
  <rect x="6" y="21" width="20" height="1" fill="#8a8a92" />
  <rect x="26" y="21" width="1" height="1" fill="#020406" />
  <rect x="5" y="22" width="1" height="1" fill="#020406" />
  <rect x="6" y="22" width="20" height="1" fill="#8a8a92" />
  <rect x="26" y="22" width="1" height="1" fill="#020406" />
  <rect x="5" y="23" width="1" height="1" fill="#020406" />
  <rect x="6" y="23" width="20" height="1" fill="#8a8a92" />
  <rect x="26" y="23" width="1" height="1" fill="#020406" />
  <rect x="5" y="24" width="1" height="1" fill="#020406" />
  <rect x="6" y="24" width="20" height="1" fill="#8a8a92" />
  <rect x="26" y="24" width="1" height="1" fill="#020406" />
  <rect x="5" y="25" width="1" height="1" fill="#020406" />
  <rect x="6" y="25" width="20" height="1" fill="#8a8a92" />
  <rect x="26" y="25" width="1" height="1" fill="#020406" />
  <rect x="5" y="26" width="1" height="1" fill="#020406" />
  <rect x="6" y="26" width="20" height="1" fill="#8a8a92" />
  <rect x="26" y="26" width="1" height="1" fill="#020406" />
  <rect x="5" y="27" width="1" height="1" fill="#020406" />
  <rect x="6" y="27" width="20" height="1" fill="#8a8a92" />
  <rect x="26" y="27" width="1" height="1" fill="#020406" />
  <rect x="6" y="28" width="20" height="1" fill="#020406" />
</svg>