<svg xmlns="http://www.w3.org/2000/svg" viewBox="0 0 32 32" width="32" height="32" style="image-rendering: pixelated; shape-rendering: crispEdges;">

  <defs>
    <filter id="bossGlow" x="-20%" y="-20%" width="140%" height="140%">
      <feGaussianBlur stdDeviation="1.5" result="blur" />
      <feComposite in="SourceGraphic" in2="blur" operator="over" />
    </filter>
  </defs>
  <circle cx="16" cy="16" r="13" fill="none" stroke="#ff1a1a" stroke-width="1.5" opacity="0.35" stroke-dasharray="2 2" filter="url(#bossGlow)" />
  <circle cx="16" cy="16" r="15" fill="none" stroke="#ff1a1a" stroke-width="0.5" opacity="0.15" />

  <rect x="13" y="3" width="1" height="1" fill="#020406" />
  <rect x="18" y="3" width="1" height="1" fill="#020406" />
  <rect x="12" y="4" width="1" height="1" fill="#020406" />
  <rect x="13" y="4" width="1" height="1" fill="#ff1a1a" />
  <rect x="14" y="4" width="1" height="1" fill="#020406" />
  <rect x="17" y="4" width="1" height="1" fill="#020406" />
  <rect x="18" y="4" width="1" height="1" fill="#ff1a1a" />
  <rect x="19" y="4" width="1" height="1" fill="#020406" />
  <rect x="11" y="5" width="1" height="1" fill="#020406" />
  <rect x="12" y="5" width="1" height="1" fill="#ff1a1a" />
  <rect x="13" y="5" width="1" height="1" fill="#020406" />
  <rect x="18" y="5" width="1" height="1" fill="#020406" />
  <rect x="19" y="5" width="1" height="1" fill="#ff1a1a" />
  <rect x="20" y="5" width="1" height="1" fill="#020406" />
  <rect x="11" y="6" width="1" height="1" fill="#020406" />
  <rect x="12" y="6" width="1" height="1" fill="#ea9143" />
  <rect x="13" y="6" width="1" height="1" fill="#020406" />
  <rect x="18" y="6" width="1" height="1" fill="#020406" />
  <rect x="19" y="6" width="1" height="1" fill="#ea9143" />
  <rect x="20" y="6" width="1" height="1" fill="#020406" />
  <rect x="10" y="7" width="1" height="1" fill="#020406" />
  <rect x="11" y="7" width="1" height="1" fill="#ea9143" />
  <rect x="12" y="7" width="8" height="1" fill="#020406" />
  <rect x="20" y="7" width="1" height="1" fill="#ea9143" />
  <rect x="21" y="7" width="1" height="1" fill="#020406" />
  <rect x="9" y="8" width="1" height="1" fill="#020406" />
  <rect x="10" y="8" width="12" height="1" fill="#a24b42" />
  <rect x="22" y="8" width="1" height="1" fill="#020406" />
  <rect x="9" y="9" width="1" height="1" fill="#020406" />
  <rect x="10" y="9" width="12" height="1" fill="#a24b42" />
  <rect x="22" y="9" width="1" height="1" fill="#020406" />
  <rect x="9" y="10" width="1" height="1" fill="#020406" />
  <rect x="10" y="10" width="12" height="1" fill="#a24b42" />
  <rect x="22" y="10" width="1" height="1" fill="#020406" />
  <rect x="9" y="11" width="1" height="1" fill="#020406" />
  <rect x="10" y="11" width="3" height="1" fill="#a24b42" />
  <rect x="13" y="11" width="1" height="1" fill="#ff1a1a" />
  <rect x="14" y="11" width="4" height="1" fill="#a24b42" />
  <rect x="18" y="11" width="1" height="1" fill="#ff1a1a" />
  <rect x="19" y="11" width="3" height="1" fill="#a24b42" />
  <rect x="22" y="11" width="1" height="1" fill="#020406" />
  <rect x="9" y="12" width="1" height="1" fill="#020406" />
  <rect x="10" y="12" width="12" height="1" fill="#a24b42" />
  <rect x="22" y="12" width="1" height="1" fill="#020406" />
  <rect x="9" y="13" width="1" height="1" fill="#020406" />
  <rect x="10" y="13" width="12" height="1" fill="#a24b42" />
  <rect x="22" y="13" width="1" height="1" fill="#020406" />
  <rect x="9" y="14" width="1" height="1" fill="#020406" />
  <rect x="10" y="14" width="12" height="1" fill="#a24b42" />
  <rect x="22" y="14" width="1" height="1" fill="#020406" />
  <rect x="9" y="15" width="1" height="1" fill="#020406" />
  <rect x="10" y="15" width="12" height="1" fill="#a24b42" />
  <rect x="22" y="15" width="1" height="1" fill="#020406" />
  <rect x="8" y="16" width="1" height="1" fill="#020406" />
  <rect x="9" y="16" width="14" height="1" fill="#a24b42" />
  <rect x="23" y="16" width="1" height="1" fill="#020406" />
  <rect x="8" y="17" width="1" height="1" fill="#020406" />
  <rect x="9" y="17" width="14" height="1" fill="#a24b42" />
  <rect x="23" y="17" width="1" height="1" fill="#020406" />
  <rect x="7" y="18" width="1" height="1" fill="#020406" />
  <rect x="8" y="18" width="5" height="1" fill="#ea9143" />
  <rect x="13" y="18" width="6" height="1" fill="#a24b42" />
  <rect x="19" y="18" width="5" height="1" fill="#ea9143" />
  <rect x="24" y="18" width="1" height="1" fill="#020406" />
  <rect x="7" y="19" width="1" height="1" fill="#020406" />
  <rect x="8" y="19" width="5" height="1" fill="#ea9143" />
  <rect x="13" y="19" width="6" height="1" fill="#a24b42" />
  <rect x="19" y="19" width="5" height="1" fill="#ea9143" />
  <rect x="24" y="19" width="1" height="1" fill="#020406" />
  <rect x="7" y="20" width="1" height="1" fill="#020406" />
  <rect x="8" y="20" width="5" height="1" fill="#ea9143" />
  <rect x="13" y="20" width="1" height="1" fill="#ff1a1a" />
  <rect x="14" y="20" width="4" height="1" fill="#a24b42" />
  <rect x="18" y="20" width="1" height="1" fill="#ff1a1a" />
  <rect x="19" y="20" width="5" height="1" fill="#ea9143" />
  <rect x="24" y="20" width="1" height="1" fill="#020406" />
  <rect x="7" y="21" width="1" height="1" fill="#020406" />
  <rect x="8" y="21" width="5" height="1" fill="#ea9143" />
  <rect x="13" y="21" width="6" height="1" fill="#a24b42" />
  <rect x="19" y="21" width="5" height="1" fill="#ea9143" />
  <rect x="24" y="21" width="1" height="1" fill="#020406" />
  <rect x="7" y="22" width="1" height="1" fill="#020406" />
  <rect x="8" y="22" width="5" height="1" fill="#ea9143" />
  <rect x="13" y="22" width="6" height="1" fill="#a24b42" />
  <rect x="19" y="22" width="5" height="1" fill="#ea9143" />
  <rect x="24" y="22" width="1" height="1" fill="#020406" />
  <rect x="8" y="23" width="1" height="1" fill="#020406" />
  <rect x="9" y="23" width="5" height="1" fill="#a24b42" />
  <rect x="14" y="23" width="1" height="1" fill="#ff1a1a" />
  <rect x="15" y="23" width="2" height="1" fill="#a24b42" />
  <rect x="17" y="23" width="1" height="1" fill="#ff1a1a" />
  <rect x="18" y="23" width="5" height="1" fill="#a24b42" />
  <rect x="23" y="23" width="1" height="1" fill="#020406" />
  <rect x="8" y="24" width="1" height="1" fill="#020406" />
  <rect x="9" y="24" width="14" height="1" fill="#a24b42" />
  <rect x="23" y="24" width="1" height="1" fill="#020406" />
  <rect x="8" y="25" width="1" height="1" fill="#020406" />
  <rect x="9" y="25" width="14" height="1" fill="#a24b42" />
  <rect x="23" y="25" width="1" height="1" fill="#020406" />
  <rect x="8" y="26" width="1" height="1" fill="#020406" />
  <rect x="9" y="26" width="14" height="1" fill="#a24b42" />
  <rect x="23" y="26" width="1" height="1" fill="#020406" />
  <rect x="9" y="27" width="14" height="1" fill="#020406" />
</svg>