<svg xmlns="http://www.w3.org/2000/svg" viewBox="0 0 32 32" width="32" height="32" style="image-rendering: pixelated; shape-rendering: crispEdges;">

  <rect x="15" y="1" width="2" height="1" fill="#020406" />
  <rect x="13" y="2" width="2" height="1" fill="#020406" />
  <rect x="15" y="2" width="2" height="1" fill="#3d1d5a" />
  <rect x="17" y="2" width="2" height="1" fill="#020406" />
  <rect x="12" y="3" width="1" height="1" fill="#020406" />
  <rect x="13" y="3" width="1" height="1" fill="#3d1d5a" />
  <rect x="14" y="3" width="4" height="1" fill="#020406" />
  <rect x="18" y="3" width="1" height="1" fill="#3d1d5a" />
  <rect x="19" y="3" width="1" height="1" fill="#020406" />
  <rect x="11" y="4" width="1" height="1" fill="#020406" />
  <rect x="12" y="4" width="1" height="1" fill="#3d1d5a" />
  <rect x="13" y="4" width="1" height="1" fill="#020406" />
  <rect x="14" y="4" width="1" height="1" fill="#3d1d5a" />
  <rect x="15" y="4" width="2" height="1" fill="#020406" />
  <rect x="17" y="4" width="1" height="1" fill="#3d1d5a" />
  <rect x="18" y="4" width="1" height="1" fill="#020406" />
  <rect x="19" y="4" width="1" height="1" fill="#3d1d5a" />
  <rect x="20" y="4" width="1" height="1" fill="#020406" />
  <rect x="11" y="5" width="1" height="1" fill="#020406" />
  <rect x="12" y="5" width="1" height="1" fill="#3d1d5a" />
  <rect x="13" y="5" width="6" height="1" fill="#020406" />
  <rect x="19" y="5" width="1" height="1" fill="#3d1d5a" />
  <rect x="20" y="5" width="1" height="1" fill="#020406" />
  <rect x="10" y="6" width="1" height="1" fill="#020406" />
  <rect x="11" y="6" width="10" height="1" fill="#1a1a24" />
  <rect x="21" y="6" width="1" height="1" fill="#020406" />
  <rect x="10" y="7" width="1" height="1" fill="#020406" />
  <rect x="11" y="7" width="10" height="1" fill="#1a1a24" />
  <rect x="21" y="7" width="1" height="1" fill="#020406" />
  <rect x="10" y="8" width="1" height="1" fill="#020406" />
  <rect x="11" y="8" width="10" height="1" fill="#1a1a24" />
  <rect x="21" y="8" width="1" height="1" fill="#020406" />
  <rect x="10" y="9" width="1" height="1" fill="#020406" />
  <rect x="11" y="9" width="10" height="1" fill="#1a1a24" />
  <rect x="21" y="9" width="1" height="1" fill="#020406" />
  <rect x="10" y="10" width="1" height="1" fill="#020406" />
  <rect x="11" y="10" width="2" height="1" fill="#1a1a24" />
  <rect x="13" y="10" width="1" height="1" fill="#c050ff" />
  <rect x="14" y="10" width="4" height="1" fill="#1a1a24" />
  <rect x="18" y="10" width="1" height="1" fill="#c050ff" />
  <rect x="19" y="10" width="2" height="1" fill="#1a1a24" />
  <rect x="21" y="10" width="1" height="1" fill="#020406" />
  <rect x="10" y="11" width="1" height="1" fill="#020406" />
  <rect x="11" y="11" width="10" height="1" fill="#1a1a24" />
  <rect x="21" y="11" width="1" height="1" fill="#020406" />
  <rect x="10" y="12" width="1" height="1" fill="#020406" />
  <rect x="11" y="12" width="10" height="1" fill="#1a1a24" />
  <rect x="21" y="12" width="1" height="1" fill="#020406" />
  <rect x="10" y="13" width="1" height="1" fill="#020406" />
  <rect x="11" y="13" width="10" height="1" fill="#1a1a24" />
  <rect x="21" y="13" width="1" height="1" fill="#020406" />
  <rect x="9" y="14" width="2" height="1" fill="#020406" />
  <rect x="11" y="14" width="10" height="1" fill="#1a1a24" />
  <rect x="21" y="14" width="2" height="1" fill="#020406" />
  <rect x="8" y="15" width="1" height="1" fill="#020406" />
  <rect x="9" y="15" width="14" height="1" fill="#1a1a24" />
  <rect x="23" y="15" width="1" height="1" fill="#020406" />
  <rect x="8" y="16" width="1" height="1" fill="#020406" />
  <rect x="9" y="16" width="14" height="1" fill="#1a1a24" />
  <rect x="23" y="16" width="1" height="1" fill="#020406" />
  <rect x="8" y="17" width="1" height="1" fill="#020406" />
  <rect x="9" y="17" width="14" height="1" fill="#1a1a24" />
  <rect x="23" y="17" width="1" height="1" fill="#020406" />
  <rect x="8" y="18" width="1" height="1" fill="#020406" />
  <rect x="9" y="18" width="14" height="1" fill="#1a1a24" />
  <rect x="23" y="18" width="1" height="1" fill="#020406" />
  <rect x="8" y="19" width="1" height="1" fill="#020406" />
  <rect x="9" y="19" width="14" height="1" fill="#1a1a24" />
  <rect x="23" y="19" width="1" height="1" fill="#020406" />
  <rect x="8" y="20" width="1" height="1" fill="#020406" />
  <rect x="9" y="20" width="14" height="1" fill="#1a1a24" />
  <rect x="23" y="20" width="1" height="1" fill="#020406" />
  <rect x="8" y="21" width="1" height="1" fill="#020406" />
  <rect x="9" y="21" width="14" height="1" fill="#1a1a24" />
  <rect x="23" y="21" width="1" height="1" fill="#020406" />
  <rect x="8" y="22" width="1" height="1" fill="#020406" />
  <rect x="9" y="22" width="14" height="1" fill="#1a1a24" />
  <rect x="23" y="22" width="1" height="1" fill="#020406" />
  <rect x="8" y="23" width="1" height="1" fill="#020406" />
  <rect x="9" y="23" width="14" height="1" fill="#1a1a24" />
  <rect x="23" y="23" width="1" height="1" fill="#020406" />
  <rect x="8" y="24" width="1" height="1" fill="#020406" />
  <rect x="9" y="24" width="14" height="1" fill="#1a1a24" />
  <rect x="23" y="24" width="1" height="1" fill="#020406" />
  <rect x="9" y="25" width="6" height="1" fill="#020406" />
  <rect x="15" y="25" width="2" height="1" fill="#3d1d5a" />
  <rect x="17" y="25" width="6" height="1" fill="#020406" />
  <rect x="13" y="26" width="1" height="1" fill="#020406" />
  <rect x="14" y="26" width="1" height="1" fill="#3d1d5a" />
  <rect x="15" y="26" width="2" height="1" fill="#020406" />
  <rect x="17" y="26" width="1" height="1" fill="#3d1d5a" />
  <rect x="18" y="26" width="1" height="1" fill="#020406" />
  <rect x="12" y="27" width="1" height="1" fill="#020406" />
  <rect x="13" y="27" width="1" height="1" fill="#3d1d5a" />
  <rect x="14" y="27" width="1" height="1" fill="#020406" />
  <rect x="17" y="27" width="1" height="1" fill="#020406" />
  <rect x="18" y="27" width="1" height="1" fill="#3d1d5a" />
  <rect x="19" y="27" width="1" height="1" fill="#020406" />
  <rect x="11" y="28" width="1" height="1" fill="#020406" />
  <rect x="12" y="28" width="1" height="1" fill="#3d1d5a" />
  <rect x="13" y="28" width="1" height="1" fill="#020406" />
  <rect x="18" y="28" width="1" height="1" fill="#020406" />
  <rect x="19" y="28" width="1" height="1" fill="#3d1d5a" />
  <rect x="20" y="28" width="1" height="1" fill="#020406" />
  <rect x="12" y="29" width="1" height="1" fill="#020406" />
  <rect x="19" y="29" width="1" height="1" fill="#020406" />
</svg>