<svg xmlns="http://www.w3.org/2000/svg" viewBox="0 0 32 32" width="32" height="32" style="image-rendering: pixelated; shape-rendering: crispEdges;">

  <rect x="9" y="4" width="4" height="1" fill="#020406" />
  <rect x="19" y="4" width="4" height="1" fill="#020406" />
  <rect x="8" y="5" width="1" height="1" fill="#020406" />
  <rect x="9" y="5" width="4" height="1" fill="#2e4053" />
  <rect x="13" y="5" width="1" height="1" fill="#020406" />
  <rect x="18" y="5" width="1" height="1" fill="#020406" />
  <rect x="19" y="5" width="4" height="1" fill="#2e4053" />
  <rect x="23" y="5" width="1" height="1" fill="#020406" />
  <rect x="8" y="6" width="1" height="1" fill="#020406" />
  <rect x="9" y="6" width="4" height="1" fill="#2e4053" />
  <rect x="13" y="6" width="1" height="1" fill="#020406" />
  <rect x="18" y="6" width="1" height="1" fill="#020406" />
  <rect x="19" y="6" width="4" height="1" fill="#2e4053" />
  <rect x="23" y="6" width="1" height="1" fill="#020406" />
  <rect x="8" y="7" width="1" height="1" fill="#020406" />
  <rect x="9" y="7" width="4" height="1" fill="#2e4053" />
  <rect x="13" y="7" width="1" height="1" fill="#020406" />
  <rect x="18" y="7" width="1" height="1" fill="#020406" />
  <rect x="19" y="7" width="4" height="1" fill="#2e4053" />
  <rect x="23" y="7" width="1" height="1" fill="#020406" />
  <rect x="8" y="8" width="1" height="1" fill="#020406" />
  <rect x="9" y="8" width="4" height="1" fill="#2e4053" />
  <rect x="13" y="8" width="1" height="1" fill="#020406" />
  <rect x="18" y="8" width="1" height="1" fill="#020406" />
  <rect x="19" y="8" width="4" height="1" fill="#2e4053" />
  <rect x="23" y="8" width="1" height="1" fill="#020406" />
  <rect x="8" y="9" width="1" height="1" fill="#020406" />
  <rect x="9" y="9" width="4" height="1" fill="#2e4053" />
  <rect x="13" y="9" width="6" height="1" fill="#020406" />
  <rect x="19" y="9" width="4" height="1" fill="#2e4053" />
  <rect x="23" y="9" width="1" height="1" fill="#020406" />
  <rect x="9" y="10" width="1" height="1" fill="#020406" />
  <rect x="10" y="10" width="12" height="1" fill="#5d6d7e" />
  <rect x="22" y="10" width="1" height="1" fill="#020406" />
  <rect x="9" y="11" width="1" height="1" fill="#020406" />
  <rect x="10" y="11" width="2" height="1" fill="#5d6d7e" />
  <rect x="12" y="11" width="8" height="1" fill="#e5c4a3" />
  <rect x="20" y="11" width="2" height="1" fill="#5d6d7e" />
  <rect x="22" y="11" width="1" height="1" fill="#020406" />
  <rect x="9" y="12" width="1" height="1" fill="#020406" />
  <rect x="10" y="12" width="2" height="1" fill="#5d6d7e" />
  <rect x="12" y="12" width="1" height="1" fill="#e5c4a3" />
  <rect x="13" y="12" width="1" height="1" fill="#ff3333" />
  <rect x="14" y="12" width="4" height="1" fill="#e5c4a3" />
  <rect x="18" y="12" width="1" height="1" fill="#ff3333" />
  <rect x="19" y="12" width="1" height="1" fill="#e5c4a3" />
  <rect x="20" y="12" width="2" height="1" fill="#5d6d7e" />
  <rect x="22" y="12" width="1" height="1" fill="#020406" />
  <rect x="9" y="13" width="1" height="1" fill="#020406" />
  <rect x="10" y="13" width="2" height="1" fill="#5d6d7e" />
  <rect x="12" y="13" width="8" height="1" fill="#e5c4a3" />
  <rect x="20" y="13" width="2" height="1" fill="#5d6d7e" />
  <rect x="22" y="13" width="1" height="1" fill="#020406" />
  <rect x="9" y="14" width="1" height="1" fill="#020406" />
  <rect x="10" y="14" width="12" height="1" fill="#5d6d7e" />
  <rect x="22" y="14" width="1" height="1" fill="#020406" />
  <rect x="8" y="15" width="2" height="1" fill="#020406" />
  <rect x="10" y="15" width="12" height="1" fill="#5d6d7e" />
  <rect x="22" y="15" width="2" height="1" fill="#020406" />
  <rect x="7" y="16" width="1" height="1" fill="#020406" />
  <rect x="8" y="16" width="16" height="1" fill="#5d6d7e" />
  <rect x="24" y="16" width="1" height="1" fill="#020406" />
  <rect x="7" y="17" width="1" height="1" fill="#020406" />
  <rect x="8" y="17" width="16" height="1" fill="#5d6d7e" />
  <rect x="24" y="17" width="1" height="1" fill="#020406" />
  <rect x="7" y="18" width="1" height="1" fill="#020406" />
  <rect x="8" y="18" width="16" height="1" fill="#5d6d7e" />
  <rect x="24" y="18" width="1" height="1" fill="#020406" />
  <rect x="7" y="19" width="1" height="1" fill="#020406" />
  <rect x="8" y="19" width="16" height="1" fill="#5d6d7e" />
  <rect x="24" y="19" width="1" height="1" fill="#020406" />
  <rect x="7" y="20" width="1" height="1" fill="#020406" />
  <rect x="8" y="20" width="16" height="1" fill="#5d6d7e" />
  <rect x="24" y="20" width="1" height="1" fill="#020406" />
  <rect x="6" y="21" width="2" height="1" fill="#020406" />
  <rect x="8" y="21" width="16" height="1" fill="#5d6d7e" />
  <rect x="24" y="21" width="2" height="1" fill="#020406" />
  <rect x="5" y="22" width="1" height="1" fill="#020406" />
  <rect x="6" y="22" width="4" height="1" fill="#2e4053" />
  <rect x="10" y="22" width="12" height="1" fill="#5d6d7e" />
  <rect x="22" y="22" width="4" height="1" fill="#2e4053" />
  <rect x="26" y="22" width="1" height="1" fill="#020406" />
  <rect x="5" y="23" width="1" height="1" fill="#020406" />
  <rect x="6" y="23" width="4" height="1" fill="#2e4053" />
  <rect x="10" y="23" width="12" height="1" fill="#5d6d7e" />
  <rect x="22" y="23" width="4" height="1" fill="#2e4053" />
  <rect x="26" y="23" width="1" height="1" fill="#020406" />
  <rect x="5" y="24" width="1" height="1" fill="#020406" />
  <rect x="6" y="24" width="4" height="1" fill="#2e4053" />
  <rect x="10" y="24" width="12" height="1" fill="#5d6d7e" />
  <rect x="22" y="24" width="4" height="1" fill="#2e4053" />
  <rect x="26" y="24" width="1" height="1" fill="#020406" />
  <rect x="5" y="25" width="1" height="1" fill="#020406" />
  <rect x="6" y="25" width="4" height="1" fill="#2e4053" />
  <rect x="10" y="25" width="12" height="1" fill="#5d6d7e" />
  <rect x="22" y="25" width="4" height="1" fill="#2e4053" />
  <rect x="26" y="25" width="1" height="1" fill="#020406" />
  <rect x="5" y="26" width="1" height="1" fill="#020406" />
  <rect x="6" y="26" width="4" height="1" fill="#2e4053" />
  <rect x="10" y="26" width="12" height="1" fill="#5d6d7e" />
  <rect x="22" y="26" width="4" height="1" fill="#2e4053" />
  <rect x="26" y="26" width="1" height="1" fill="#020406" />
  <rect x="5" y="27" width="1" height="1" fill="#020406" />
  <rect x="6" y="27" width="4" height="1" fill="#2e4053" />
  <rect x="10" y="27" width="12" height="1" fill="#5d6d7e" />
  <rect x="22" y="27" width="4" height="1" fill="#2e4053" />
  <rect x="26" y="27" width="1" height="1" fill="#020406" />
  <rect x="6" y="28" width="20" height="1" fill="#020406" />
</svg>