<svg xmlns="http://www.w3.org/2000/svg" viewBox="0 0 32 32" width="32" height="32" style="image-rendering: pixelated; shape-rendering: crispEdges;">

  <rect x="6" y="0" width="1" height="1" fill="#06080c" />
  <rect x="5" y="1" width="1" height="1" fill="#06080c" />
  <rect x="6" y="1" width="1" height="1" fill="#d5dbdb" />
  <rect x="7" y="1" width="1" height="1" fill="#06080c" />
  <rect x="5" y="2" width="3" height="1" fill="#06080c" />
  <rect x="4" y="3" width="1" height="1" fill="#06080c" />
  <rect x="5" y="3" width="1" height="1" fill="#4a5a6a" />
  <rect x="6" y="3" width="1" height="1" fill="#06080c" />
  <rect x="7" y="3" width="1" height="1" fill="#4a5a6a" />
  <rect x="8" y="3" width="1" height="1" fill="#06080c" />
  <rect x="10" y="3" width="12" height="1" fill="#06080c" />
  <rect x="4" y="4" width="1" height="1" fill="#06080c" />
  <rect x="5" y="4" width="1" height="1" fill="#4a5a6a" />
  <rect x="6" y="4" width="1" height="1" fill="#06080c" />
  <rect x="7" y="4" width="1" height="1" fill="#4a5a6a" />
  <rect x="8" y="4" width="2" height="1" fill="#06080c" />
  <rect x="10" y="4" width="12" height="1" fill="#3498db" />
  <rect x="22" y="4" width="1" height="1" fill="#06080c" />
  <rect x="2" y="5" width="3" height="1" fill="#06080c" />
  <rect x="5" y="5" width="1" height="1" fill="#4a5a6a" />
  <rect x="6" y="5" width="1" height="1" fill="#06080c" />
  <rect x="7" y="5" width="1" height="1" fill="#4a5a6a" />
  <rect x="8" y="5" width="2" height="1" fill="#06080c" />
  <rect x="10" y="5" width="12" height="1" fill="#3498db" />
  <rect x="22" y="5" width="1" height="1" fill="#06080c" />
  <rect x="1" y="6" width="1" height="1" fill="#06080c" />
  <rect x="2" y="6" width="3" height="1" fill="#ffff80" />
  <rect x="5" y="6" width="1" height="1" fill="#06080c" />
  <rect x="6" y="6" width="1" height="1" fill="#1a5276" />
  <rect x="7" y="6" width="1" height="1" fill="#06080c" />
  <rect x="9" y="6" width="1" height="1" fill="#06080c" />
  <rect x="10" y="6" width="2" height="1" fill="#3498db" />
  <rect x="12" y="6" width="8" height="1" fill="#e6ffcc" />
  <rect x="20" y="6" width="2" height="1" fill="#3498db" />
  <rect x="22" y="6" width="1" height="1" fill="#06080c" />
  <rect x="2" y="7" width="4" height="1" fill="#06080c" />
  <rect x="6" y="7" width="1" height="1" fill="#1a5276" />
  <rect x="7" y="7" width="1" height="1" fill="#06080c" />
  <rect x="9" y="7" width="1" height="1" fill="#06080c" />
  <rect x="10" y="7" width="2" height="1" fill="#3498db" />
  <rect x="12" y="7" width="8" height="1" fill="#e6ffcc" />
  <rect x="20" y="7" width="2" height="1" fill="#3498db" />
  <rect x="22" y="7" width="1" height="1" fill="#06080c" />
  <rect x="5" y="8" width="1" height="1" fill="#06080c" />
  <rect x="6" y="8" width="1" height="1" fill="#1a5276" />
  <rect x="7" y="8" width="1" height="1" fill="#06080c" />
  <rect x="9" y="8" width="1" height="1" fill="#06080c" />
  <rect x="10" y="8" width="2" height="1" fill="#3498db" />
  <rect x="12" y="8" width="1" height="1" fill="#e6ffcc" />
  <rect x="13" y="8" width="1" height="1" fill="#4a5a6a" />
  <rect x="14" y="8" width="4" height="1" fill="#e6ffcc" />
  <rect x="18" y="8" width="1" height="1" fill="#4a5a6a" />
  <rect x="19" y="8" width="1" height="1" fill="#e6ffcc" />
  <rect x="20" y="8" width="2" height="1" fill="#3498db" />
  <rect x="22" y="8" width="1" height="1" fill="#06080c" />
  <rect x="5" y="9" width="1" height="1" fill="#06080c" />
  <rect x="6" y="9" width="1" height="1" fill="#1a5276" />
  <rect x="7" y="9" width="1" height="1" fill="#06080c" />
  <rect x="9" y="9" width="1" height="1" fill="#06080c" />
  <rect x="10" y="9" width="2" height="1" fill="#3498db" />
  <rect x="12" y="9" width="8" height="1" fill="#e6ffcc" />
  <rect x="20" y="9" width="2" height="1" fill="#3498db" />
  <rect x="22" y="9" width="1" height="1" fill="#06080c" />
  <rect x="5" y="10" width="1" height="1" fill="#06080c" />
  <rect x="6" y="10" width="1" height="1" fill="#1a5276" />
  <rect x="7" y="10" width="1" height="1" fill="#06080c" />
  <rect x="9" y="10" width="1" height="1" fill="#06080c" />
  <rect x="10" y="10" width="2" height="1" fill="#3498db" />
  <rect x="12" y="10" width="8" height="1" fill="#e6ffcc" />
  <rect x="20" y="10" width="2" height="1" fill="#3498db" />
  <rect x="22" y="10" width="1" height="1" fill="#06080c" />
  <rect x="5" y="11" width="1" height="1" fill="#06080c" />
  <rect x="6" y="11" width="1" height="1" fill="#1a5276" />
  <rect x="7" y="11" width="1" height="1" fill="#06080c" />
  <rect x="9" y="11" width="1" height="1" fill="#06080c" />
  <rect x="10" y="11" width="12" height="1" fill="#3498db" />
  <rect x="22" y="11" width="1" height="1" fill="#06080c" />
  <rect x="5" y="12" width="1" height="1" fill="#06080c" />
  <rect x="6" y="12" width="1" height="1" fill="#1a5276" />
  <rect x="7" y="12" width="3" height="1" fill="#06080c" />
  <rect x="10" y="12" width="12" height="1" fill="#3498db" />
  <rect x="22" y="12" width="2" height="1" fill="#06080c" />
  <rect x="5" y="13" width="1" height="1" fill="#06080c" />
  <rect x="6" y="13" width="1" height="1" fill="#1a5276" />
  <rect x="7" y="13" width="1" height="1" fill="#06080c" />
  <rect x="8" y="13" width="4" height="1" fill="#1a5276" />
  <rect x="12" y="13" width="8" height="1" fill="#3498db" />
  <rect x="20" y="13" width="4" height="1" fill="#1a5276" />
  <rect x="24" y="13" width="1" height="1" fill="#06080c" />
  <rect x="5" y="14" width="1" height="1" fill="#06080c" />
  <rect x="6" y="14" width="1" height="1" fill="#1a5276" />
  <rect x="7" y="14" width="1" height="1" fill="#06080c" />
  <rect x="8" y="14" width="2" height="1" fill="#1a5276" />
  <rect x="10" y="14" width="4" height="1" fill="#3498db" />
  <rect x="14" y="14" width="4" height="1" fill="#1a5276" />
  <rect x="18" y="14" width="4" height="1" fill="#3498db" />
  <rect x="22" y="14" width="2" height="1" fill="#1a5276" />
  <rect x="24" y="14" width="1" height="1" fill="#06080c" />
  <rect x="5" y="15" width="1" height="1" fill="#06080c" />
  <rect x="6" y="15" width="1" height="1" fill="#1a5276" />
  <rect x="7" y="15" width="1" height="1" fill="#06080c" />
  <rect x="8" y="15" width="6" height="1" fill="#3498db" />
  <rect x="14" y="15" width="4" height="1" fill="#1a5276" />
  <rect x="18" y="15" width="4" height="1" fill="#3498db" />
  <rect x="22" y="15" width="2" height="1" fill="#1a5276" />
  <rect x="24" y="15" width="1" height="1" fill="#06080c" />
  <rect x="5" y="16" width="1" height="1" fill="#06080c" />
  <rect x="6" y="16" width="1" height="1" fill="#1a5276" />
  <rect x="7" y="16" width="1" height="1" fill="#e6ffcc" />
  <rect x="8" y="16" width="6" height="1" fill="#3498db" />
  <rect x="14" y="16" width="4" height="1" fill="#1a5276" />
  <rect x="18" y="16" width="4" height="1" fill="#3498db" />
  <rect x="22" y="16" width="2" height="1" fill="#1a5276" />
  <rect x="24" y="16" width="1" height="1" fill="#06080c" />
  <rect x="5" y="17" width="1" height="1" fill="#06080c" />
  <rect x="6" y="17" width="1" height="1" fill="#1a5276" />
  <rect x="7" y="17" width="1" height="1" fill="#e6ffcc" />
  <rect x="8" y="17" width="6" height="1" fill="#3498db" />
  <rect x="14" y="17" width="4" height="1" fill="#1a5276" />
  <rect x="18" y="17" width="4" height="1" fill="#3498db" />
  <rect x="22" y="17" width="2" height="1" fill="#1a5276" />
  <rect x="24" y="17" width="1" height="1" fill="#06080c" />
  <rect x="5" y="18" width="1" height="1" fill="#06080c" />
  <rect x="6" y="18" width="1" height="1" fill="#1a5276" />
  <rect x="7" y="18" width="1" height="1" fill="#e6ffcc" />
  <rect x="8" y="18" width="2" height="1" fill="#1a5276" />
  <rect x="10" y="18" width="4" height="1" fill="#3498db" />
  <rect x="14" y="18" width="4" height="1" fill="#1a5276" />
  <rect x="18" y="18" width="4" height="1" fill="#3498db" />
  <rect x="22" y="18" width="2" height="1" fill="#1a5276" />
  <rect x="24" y="18" width="1" height="1" fill="#06080c" />
  <rect x="5" y="19" width="1" height="1" fill="#06080c" />
  <rect x="6" y="19" width="1" height="1" fill="#1a5276" />
  <rect x="7" y="19" width="1" height="1" fill="#06080c" />
  <rect x="8" y="19" width="2" height="1" fill="#1a5276" />
  <rect x="10" y="19" width="4" height="1" fill="#3498db" />
  <rect x="14" y="19" width="4" height="1" fill="#1a5276" />
  <rect x="18" y="19" width="2" height="1" fill="#3498db" />
  <rect x="20" y="19" width="2" height="1" fill="#e6ffcc" />
  <rect x="22" y="19" width="2" height="1" fill="#1a5276" />
  <rect x="24" y="19" width="1" height="1" fill="#06080c" />
  <rect x="5" y="20" width="1" height="1" fill="#06080c" />
  <rect x="6" y="20" width="1" height="1" fill="#1a5276" />
  <rect x="7" y="20" width="1" height="1" fill="#06080c" />
  <rect x="8" y="20" width="2" height="1" fill="#1a5276" />
  <rect x="10" y="20" width="4" height="1" fill="#3498db" />
  <rect x="14" y="20" width="4" height="1" fill="#1a5276" />
  <rect x="18" y="20" width="2" height="1" fill="#3498db" />
  <rect x="20" y="20" width="2" height="1" fill="#e6ffcc" />
  <rect x="22" y="20" width="2" height="1" fill="#1a5276" />
  <rect x="24" y="20" width="1" height="1" fill="#06080c" />
  <rect x="5" y="21" width="1" height="1" fill="#06080c" />
  <rect x="6" y="21" width="1" height="1" fill="#1a5276" />
  <rect x="7" y="21" width="1" height="1" fill="#06080c" />
  <rect x="8" y="21" width="2" height="1" fill="#1a5276" />
  <rect x="10" y="21" width="12" height="1" fill="#3498db" />
  <rect x="22" y="21" width="2" height="1" fill="#1a5276" />
  <rect x="24" y="21" width="1" height="1" fill="#06080c" />
  <rect x="5" y="22" width="1" height="1" fill="#06080c" />
  <rect x="6" y="22" width="1" height="1" fill="#1a5276" />
  <rect x="7" y="22" width="1" height="1" fill="#06080c" />
  <rect x="8" y="22" width="1" height="1" fill="#1a5276" />
  <rect x="9" y="22" width="14" height="1" fill="#3498db" />
  <rect x="23" y="22" width="1" height="1" fill="#1a5276" />
  <rect x="24" y="22" width="1" height="1" fill="#06080c" />
  <rect x="5" y="23" width="1" height="1" fill="#06080c" />
  <rect x="6" y="23" width="1" height="1" fill="#1a5276" />
  <rect x="7" y="23" width="1" height="1" fill="#06080c" />
  <rect x="8" y="23" width="1" height="1" fill="#1a5276" />
  <rect x="9" y="23" width="3" height="1" fill="#3498db" />
  <rect x="12" y="23" width="8" height="1" fill="#1a5276" />
  <rect x="20" y="23" width="3" height="1" fill="#3498db" />
  <rect x="23" y="23" width="1" height="1" fill="#1a5276" />
  <rect x="24" y="23" width="1" height="1" fill="#06080c" />
  <rect x="5" y="24" width="1" height="1" fill="#06080c" />
  <rect x="6" y="24" width="1" height="1" fill="#1a5276" />
  <rect x="7" y="24" width="1" height="1" fill="#06080c" />
  <rect x="8" y="24" width="1" height="1" fill="#1a5276" />
  <rect x="9" y="24" width="3" height="1" fill="#3498db" />
  <rect x="12" y="24" width="8" height="1" fill="#1a5276" />
  <rect x="20" y="24" width="3" height="1" fill="#3498db" />
  <rect x="23" y="24" width="1" height="1" fill="#1a5276" />
  <rect x="24" y="24" width="1" height="1" fill="#06080c" />
  <rect x="5" y="25" width="1" height="1" fill="#06080c" />
  <rect x="6" y="25" width="1" height="1" fill="#1a5276" />
  <rect x="7" y="25" width="1" height="1" fill="#06080c" />
  <rect x="8" y="25" width="1" height="1" fill="#1a5276" />
  <rect x="9" y="25" width="3" height="1" fill="#3498db" />
  <rect x="12" y="25" width="8" height="1" fill="#1a5276" />
  <rect x="20" y="25" width="3" height="1" fill="#3498db" />
  <rect x="23" y="25" width="1" height="1" fill="#1a5276" />
  <rect x="24" y="25" width="1" height="1" fill="#06080c" />
  <rect x="5" y="26" width="1" height="1" fill="#06080c" />
  <rect x="6" y="26" width="1" height="1" fill="#1a5276" />
  <rect x="7" y="26" width="2" height="1" fill="#06080c" />
  <rect x="9" y="26" width="3" height="1" fill="#3498db" />
  <rect x="12" y="26" width="8" height="1" fill="#1a5276" />
  <rect x="20" y="26" width="3" height="1" fill="#3498db" />
  <rect x="23" y="26" width="1" height="1" fill="#06080c" />
  <rect x="6" y="27" width="1" height="1" fill="#06080c" />
  <rect x="8" y="27" width="1" height="1" fill="#06080c" />
  <rect x="9" y="27" width="3" height="1" fill="#3498db" />
  <rect x="12" y="27" width="8" height="1" fill="#1a5276" />
  <rect x="20" y="27" width="3" height="1" fill="#3498db" />
  <rect x="23" y="27" width="1" height="1" fill="#06080c" />
  <rect x="8" y="28" width="1" height="1" fill="#06080c" />
  <rect x="9" y="28" width="3" height="1" fill="#3498db" />
  <rect x="12" y="28" width="8" height="1" fill="#1a5276" />
  <rect x="20" y="28" width="3" height="1" fill="#3498db" />
  <rect x="23" y="28" width="1" height="1" fill="#06080c" />
  <rect x="9" y="29" width="14" height="1" fill="#06080c" />
</svg>