<svg xmlns="http://www.w3.org/2000/svg" viewBox="0 0 32 32" width="32" height="32" style="image-rendering: pixelated; shape-rendering: crispEdges;">

  <defs>
    <filter id="bossGlow" x="-20%" y="-20%" width="140%" height="140%">
      <feGaussianBlur stdDeviation="1.5" result="blur" />
      <feComposite in="SourceGraphic" in2="blur" operator="over" />
    </filter>
  </defs>
  <circle cx="16" cy="16" r="13" fill="none" stroke="#ff1a1a" stroke-width="1.5" opacity="0.35" stroke-dasharray="2 2" filter="url(#bossGlow)" />
  <circle cx="16" cy="16" r="15" fill="none" stroke="#ff1a1a" stroke-width="0.5" opacity="0.15" />

  <rect x="13" y="3" width="6" height="1" fill="#020406" />
  <rect x="6" y="4" width="1" height="1" fill="#020406" />
  <rect x="12" y="4" width="1" height="1" fill="#020406" />
  <rect x="13" y="4" width="6" height="1" fill="#ff1a1a" />
  <rect x="19" y="4" width="1" height="1" fill="#020406" />
  <rect x="25" y="4" width="1" height="1" fill="#020406" />
  <rect x="5" y="5" width="1" height="1" fill="#020406" />
  <rect x="6" y="5" width="1" height="1" fill="#ffffff" />
  <rect x="7" y="5" width="1" height="1" fill="#020406" />
  <rect x="11" y="5" width="1" height="1" fill="#020406" />
  <rect x="12" y="5" width="1" height="1" fill="#ff1a1a" />
  <rect x="13" y="5" width="6" height="1" fill="#020406" />
  <rect x="19" y="5" width="1" height="1" fill="#ff1a1a" />
  <rect x="20" y="5" width="1" height="1" fill="#020406" />
  <rect x="24" y="5" width="1" height="1" fill="#020406" />
  <rect x="25" y="5" width="1" height="1" fill="#ffffff" />
  <rect x="26" y="5" width="1" height="1" fill="#020406" />
  <rect x="6" y="6" width="1" height="1" fill="#020406" />
  <rect x="7" y="6" width="1" height="1" fill="#ffffff" />
  <rect x="8" y="6" width="1" height="1" fill="#020406" />
  <rect x="12" y="6" width="1" height="1" fill="#020406" />
  <rect x="19" y="6" width="1" height="1" fill="#020406" />
  <rect x="23" y="6" width="1" height="1" fill="#020406" />
  <rect x="24" y="6" width="1" height="1" fill="#ffffff" />
  <rect x="25" y="6" width="1" height="1" fill="#020406" />
  <rect x="4" y="7" width="4" height="1" fill="#020406" />
  <rect x="8" y="7" width="1" height="1" fill="#ffffff" />
  <rect x="9" y="7" width="1" height="1" fill="#020406" />
  <rect x="11" y="7" width="10" height="1" fill="#020406" />
  <rect x="22" y="7" width="1" height="1" fill="#020406" />
  <rect x="23" y="7" width="1" height="1" fill="#ffffff" />
  <rect x="24" y="7" width="4" height="1" fill="#020406" />
  <rect x="3" y="8" width="1" height="1" fill="#020406" />
  <rect x="4" y="8" width="6" height="1" fill="#ffffff" />
  <rect x="10" y="8" width="1" height="1" fill="#020406" />
  <rect x="11" y="8" width="10" height="1" fill="#e5c4a3" />
  <rect x="21" y="8" width="1" height="1" fill="#020406" />
  <rect x="22" y="8" width="6" height="1" fill="#ffffff" />
  <rect x="28" y="8" width="1" height="1" fill="#020406" />
  <rect x="3" y="9" width="1" height="1" fill="#020406" />
  <rect x="4" y="9" width="5" height="1" fill="#ffffff" />
  <rect x="9" y="9" width="1" height="1" fill="#020406" />
  <rect x="10" y="9" width="1" height="1" fill="#ffffff" />
  <rect x="11" y="9" width="10" height="1" fill="#e5c4a3" />
  <rect x="21" y="9" width="1" height="1" fill="#ffffff" />
  <rect x="22" y="9" width="1" height="1" fill="#020406" />
  <rect x="23" y="9" width="5" height="1" fill="#ffffff" />
  <rect x="28" y="9" width="1" height="1" fill="#020406" />
  <rect x="3" y="10" width="1" height="1" fill="#020406" />
  <rect x="4" y="10" width="5" height="1" fill="#ffffff" />
  <rect x="9" y="10" width="2" height="1" fill="#020406" />
  <rect x="11" y="10" width="2" height="1" fill="#e5c4a3" />
  <rect x="13" y="10" width="1" height="1" fill="#ff1a1a" />
  <rect x="14" y="10" width="4" height="1" fill="#e5c4a3" />
  <rect x="18" y="10" width="1" height="1" fill="#ff1a1a" />
  <rect x="19" y="10" width="2" height="1" fill="#e5c4a3" />
  <rect x="21" y="10" width="2" height="1" fill="#020406" />
  <rect x="23" y="10" width="5" height="1" fill="#ffffff" />
  <rect x="28" y="10" width="1" height="1" fill="#020406" />
  <rect x="3" y="11" width="1" height="1" fill="#020406" />
  <rect x="4" y="11" width="5" height="1" fill="#ffffff" />
  <rect x="9" y="11" width="2" height="1" fill="#020406" />
  <rect x="11" y="11" width="10" height="1" fill="#e5c4a3" />
  <rect x="21" y="11" width="2" height="1" fill="#020406" />
  <rect x="23" y="11" width="5" height="1" fill="#ffffff" />
  <rect x="28" y="11" width="1" height="1" fill="#020406" />
  <rect x="3" y="12" width="1" height="1" fill="#020406" />
  <rect x="4" y="12" width="5" height="1" fill="#ffffff" />
  <rect x="9" y="12" width="2" height="1" fill="#020406" />
  <rect x="11" y="12" width="10" height="1" fill="#e5c4a3" />
  <rect x="21" y="12" width="2" height="1" fill="#020406" />
  <rect x="23" y="12" width="5" height="1" fill="#ffffff" />
  <rect x="28" y="12" width="1" height="1" fill="#020406" />
  <rect x="3" y="13" width="1" height="1" fill="#020406" />
  <rect x="4" y="13" width="5" height="1" fill="#ffffff" />
  <rect x="9" y="13" width="2" height="1" fill="#020406" />
  <rect x="11" y="13" width="10" height="1" fill="#e5c4a3" />
  <rect x="21" y="13" width="2" height="1" fill="#020406" />
  <rect x="23" y="13" width="5" height="1" fill="#ffffff" />
  <rect x="28" y="13" width="1" height="1" fill="#020406" />
  <rect x="3" y="14" width="1" height="1" fill="#020406" />
  <rect x="4" y="14" width="5" height="1" fill="#ffffff" />
  <rect x="9" y="14" width="1" height="1" fill="#020406" />
  <rect x="10" y="14" width="12" height="1" fill="#faeed9" />
  <rect x="22" y="14" width="1" height="1" fill="#020406" />
  <rect x="23" y="14" width="5" height="1" fill="#ffffff" />
  <rect x="28" y="14" width="1" height="1" fill="#020406" />
  <rect x="3" y="15" width="1" height="1" fill="#020406" />
  <rect x="4" y="15" width="5" height="1" fill="#ffffff" />
  <rect x="9" y="15" width="1" height="1" fill="#020406" />
  <rect x="10" y="15" width="12" height="1" fill="#faeed9" />
  <rect x="22" y="15" width="1" height="1" fill="#020406" />
  <rect x="23" y="15" width="5" height="1" fill="#ffffff" />
  <rect x="28" y="15" width="1" height="1" fill="#020406" />
  <rect x="3" y="16" width="1" height="1" fill="#020406" />
  <rect x="4" y="16" width="5" height="1" fill="#ffffff" />
  <rect x="9" y="16" width="1" height="1" fill="#020406" />
  <rect x="10" y="16" width="12" height="1" fill="#faeed9" />
  <rect x="22" y="16" width="1" height="1" fill="#020406" />
  <rect x="23" y="16" width="5" height="1" fill="#ffffff" />
  <rect x="28" y="16" width="1" height="1" fill="#020406" />
  <rect x="3" y="17" width="1" height="1" fill="#020406" />
  <rect x="4" y="17" width="5" height="1" fill="#ffffff" />
  <rect x="9" y="17" width="1" height="1" fill="#020406" />
  <rect x="10" y="17" width="12" height="1" fill="#faeed9" />
  <rect x="22" y="17" width="1" height="1" fill="#020406" />
  <rect x="23" y="17" width="5" height="1" fill="#ffffff" />
  <rect x="28" y="17" width="1" height="1" fill="#020406" />
  <rect x="3" y="18" width="1" height="1" fill="#020406" />
  <rect x="4" y="18" width="5" height="1" fill="#ffffff" />
  <rect x="9" y="18" width="1" height="1" fill="#020406" />
  <rect x="10" y="18" width="12" height="1" fill="#faeed9" />
  <rect x="22" y="18" width="1" height="1" fill="#020406" />
  <rect x="23" y="18" width="5" height="1" fill="#ffffff" />
  <rect x="28" y="18" width="1" height="1" fill="#020406" />
  <rect x="4" y="19" width="2" height="1" fill="#020406" />
  <rect x="6" y="19" width="4" height="1" fill="#ffdd26" />
  <rect x="10" y="19" width="12" height="1" fill="#faeed9" />
  <rect x="22" y="19" width="4" height="1" fill="#ffdd26" />
  <rect x="26" y="19" width="2" height="1" fill="#020406" />
  <rect x="5" y="20" width="1" height="1" fill="#020406" />
  <rect x="6" y="20" width="4" height="1" fill="#ffdd26" />
  <rect x="10" y="20" width="12" height="1" fill="#faeed9" />
  <rect x="22" y="20" width="4" height="1" fill="#ffdd26" />
  <rect x="26" y="20" width="1" height="1" fill="#020406" />
  <rect x="5" y="21" width="1" height="1" fill="#020406" />
  <rect x="6" y="21" width="4" height="1" fill="#ffdd26" />
  <rect x="10" y="21" width="12" height="1" fill="#faeed9" />
  <rect x="22" y="21" width="4" height="1" fill="#ffdd26" />
  <rect x="26" y="21" width="1" height="1" fill="#020406" />
  <rect x="5" y="22" width="1" height="1" fill="#020406" />
  <rect x="6" y="22" width="4" height="1" fill="#ffdd26" />
  <rect x="10" y="22" width="12" height="1" fill="#faeed9" />
  <rect x="22" y="22" width="4" height="1" fill="#ffdd26" />
  <rect x="26" y="22" width="1" height="1" fill="#020406" />
  <rect x="5" y="23" width="1" height="1" fill="#020406" />
  <rect x="6" y="23" width="4" height="1" fill="#ffdd26" />
  <rect x="10" y="23" width="12" height="1" fill="#faeed9" />
  <rect x="22" y="23" width="4" height="1" fill="#ffdd26" />
  <rect x="26" y="23" width="1" height="1" fill="#020406" />
  <rect x="6" y="24" width="4" height="1" fill="#020406" />
  <rect x="10" y="24" width="12" height="1" fill="#faeed9" />
  <rect x="22" y="24" width="4" height="1" fill="#020406" />
  <rect x="9" y="25" width="1" height="1" fill="#020406" />
  <rect x="10" y="25" width="12" height="1" fill="#faeed9" />
  <rect x="22" y="25" width="1" height="1" fill="#020406" />
  <rect x="10" y="26" width="12" height="1" fill="#020406" />
</svg>