<svg xmlns="http://www.w3.org/2000/svg" viewBox="0 0 32 32" width="32" height="32" style="image-rendering: pixelated; shape-rendering: crispEdges;">
  <rect x="12" y="3" width="8" height="1" fill="#0a0a12" />
  <rect x="11" y="4" width="10" height="1" fill="#0a0a12" />
  <rect x="11" y="4" width="10" height="1" fill="#0a0a12" />
  <rect x="12" y="4" width="8" height="1" fill="#e0f2fe" />
  <rect x="12" y="5" width="8" height="1" fill="#e0f2fe" />
  <rect x="11" y="6" width="1" height="1" fill="#0a0a12" />
  <rect x="20" y="6" width="1" height="1" fill="#0a0a12" />
  <rect x="12" y="6" width="8" height="1" fill="#f4c9a1" />
  <rect x="11" y="7" width="1" height="1" fill="#0a0a12" />
  <rect x="20" y="7" width="1" height="1" fill="#0a0a12" />
  <rect x="12" y="7" width="8" height="1" fill="#f4c9a1" />
  <rect x="13" y="7" width="1" height="1" fill="#0a0a12" />
  <rect x="18" y="7" width="1" height="1" fill="#0a0a12" />
  <rect x="11" y="8" width="1" height="1" fill="#0a0a12" />
  <rect x="20" y="8" width="1" height="1" fill="#0a0a12" />
  <rect x="12" y="8" width="8" height="1" fill="#f4c9a1" />
  <rect x="15" y="8" width="2" height="1" fill="#0a0a12" />
  <rect x="12" y="9" width="1" height="1" fill="#0a0a12" />
  <rect x="19" y="9" width="1" height="1" fill="#0a0a12" />
  <rect x="13" y="9" width="6" height="1" fill="#f4c9a1" />
  <rect x="13" y="10" width="6" height="1" fill="#0a0a12" />
  <rect x="9" y="11" width="1" height="1" fill="#0a0a12" />
  <rect x="22" y="11" width="1" height="1" fill="#0a0a12" />
  <rect x="10" y="11" width="12" height="1" fill="#f0f9ff" />
  <rect x="8" y="12" width="1" height="1" fill="#0a0a12" />
  <rect x="23" y="12" width="1" height="1" fill="#0a0a12" />
  <rect x="9" y="12" width="14" height="1" fill="#f0f9ff" />
  <rect x="8" y="13" width="1" height="1" fill="#0a0a12" />
  <rect x="23" y="13" width="1" height="1" fill="#0a0a12" />
  <rect x="9" y="13" width="14" height="1" fill="#f0f9ff" />
  <rect x="8" y="14" width="1" height="1" fill="#0a0a12" />
  <rect x="23" y="14" width="1" height="1" fill="#0a0a12" />
  <rect x="9" y="14" width="14" height="1" fill="#f0f9ff" />
  <rect x="8" y="15" width="1" height="1" fill="#0a0a12" />
  <rect x="23" y="15" width="1" height="1" fill="#0a0a12" />
  <rect x="9" y="15" width="14" height="1" fill="#f0f9ff" />
  <rect x="8" y="16" width="1" height="1" fill="#0a0a12" />
  <rect x="23" y="16" width="1" height="1" fill="#0a0a12" />
  <rect x="9" y="16" width="14" height="1" fill="#f0f9ff" />
  <rect x="10" y="13" width="12" height="1" fill="#0ea5e9" />
  <rect x="14" y="14" width="4" height="1" fill="#0ea5e9" />
  <rect x="8" y="17" width="1" height="1" fill="#0a0a12" />
  <rect x="23" y="17" width="1" height="1" fill="#0a0a12" />
  <rect x="9" y="17" width="14" height="1" fill="#909599" />
  <rect x="10" y="18" width="12" height="1" fill="#909599" />
  <rect x="6" y="12" width="1" height="1" fill="#0a0a12" />
  <rect x="7" y="12" width="2" height="1" fill="#f0f9ff" />
  <rect x="6" y="13" width="1" height="1" fill="#0a0a12" />
  <rect x="7" y="13" width="2" height="1" fill="#f0f9ff" />
  <rect x="6" y="14" width="1" height="1" fill="#0a0a12" />
  <rect x="7" y="14" width="2" height="1" fill="#f0f9ff" />
  <rect x="6" y="15" width="1" height="1" fill="#0a0a12" />
  <rect x="7" y="15" width="2" height="1" fill="#909599" />
  <rect x="6" y="16" width="1" height="1" fill="#0a0a12" />
  <rect x="7" y="16" width="2" height="1" fill="#f4c9a1" />
  <rect x="6" y="17" width="3" height="1" fill="#0a0a12" />
  <rect x="24" y="12" width="2" height="1" fill="#f0f9ff" />
  <rect x="26" y="12" width="1" height="1" fill="#0a0a12" />
  <rect x="24" y="13" width="2" height="1" fill="#f0f9ff" />
  <rect x="26" y="13" width="1" height="1" fill="#0a0a12" />
  <rect x="24" y="14" width="2" height="1" fill="#f0f9ff" />
  <rect x="26" y="14" width="1" height="1" fill="#0a0a12" />
  <rect x="24" y="15" width="2" height="1" fill="#909599" />
  <rect x="26" y="15" width="1" height="1" fill="#0a0a12" />
  <rect x="24" y="16" width="2" height="1" fill="#f4c9a1" />
  <rect x="26" y="16" width="1" height="1" fill="#0a0a12" />
  <rect x="24" y="17" width="3" height="1" fill="#0a0a12" />
  <rect x="10" y="19" width="1" height="1" fill="#0a0a12" />
  <rect x="21" y="19" width="1" height="1" fill="#0a0a12" />
  <rect x="11" y="19" width="4" height="1" fill="#909599" />
  <rect x="17" y="19" width="4" height="1" fill="#909599" />
  <rect x="15" y="19" width="2" height="1" fill="#0a0a12" />
  <rect x="10" y="20" width="1" height="1" fill="#0a0a12" />
  <rect x="21" y="20" width="1" height="1" fill="#0a0a12" />
  <rect x="11" y="20" width="4" height="1" fill="#909599" />
  <rect x="17" y="20" width="4" height="1" fill="#909599" />
  <rect x="15" y="20" width="2" height="1" fill="#0a0a12" />
  <rect x="10" y="21" width="1" height="1" fill="#0a0a12" />
  <rect x="21" y="21" width="1" height="1" fill="#0a0a12" />
  <rect x="11" y="21" width="4" height="1" fill="#909599" />
  <rect x="17" y="21" width="4" height="1" fill="#909599" />
  <rect x="15" y="21" width="2" height="1" fill="#0a0a12" />
  <rect x="10" y="22" width="1" height="1" fill="#0a0a12" />
  <rect x="21" y="22" width="1" height="1" fill="#0a0a12" />
  <rect x="11" y="22" width="4" height="1" fill="#909599" />
  <rect x="17" y="22" width="4" height="1" fill="#909599" />
  <rect x="15" y="22" width="2" height="1" fill="#0a0a12" />
  <rect x="10" y="23" width="1" height="1" fill="#0a0a12" />
  <rect x="21" y="23" width="1" height="1" fill="#0a0a12" />
  <rect x="11" y="23" width="4" height="1" fill="#909599" />
  <rect x="17" y="23" width="4" height="1" fill="#909599" />
  <rect x="15" y="23" width="2" height="1" fill="#0a0a12" />
  <rect x="10" y="24" width="1" height="1" fill="#0a0a12" />
  <rect x="21" y="24" width="1" height="1" fill="#0a0a12" />
  <rect x="11" y="24" width="4" height="1" fill="#909599" />
  <rect x="17" y="24" width="4" height="1" fill="#909599" />
  <rect x="15" y="24" width="2" height="1" fill="#0a0a12" />
  <rect x="10" y="25" width="6" height="1" fill="#0a0a12" />
  <rect x="16" y="25" width="6" height="1" fill="#0a0a12" />
  <rect x="10" y="26" width="6" height="1" fill="#0a0a12" />
  <rect x="16" y="26" width="6" height="1" fill="#0a0a12" />
  <rect x="11" y="27" width="4" height="1" fill="#909599" />
  <rect x="17" y="27" width="4" height="1" fill="#909599" />
  <rect x="10" y="28" width="6" height="1" fill="#0a0a12" />
  <rect x="16" y="28" width="6" height="1" fill="#0a0a12" />
  <rect x="26" y="8" width="5" height="1" fill="#0a0a12" />
  <rect x="25" y="9" width="1" height="1" fill="#0a0a12" />
  <rect x="26" y="9" width="5" height="1" fill="#e5e7eb" />
  <rect x="31" y="9" width="1" height="1" fill="#0a0a12" />
  <rect x="25" y="10" width="1" height="1" fill="#0a0a12" />
  <rect x="26" y="10" width="5" height="1" fill="#0ea5e9" />
  <rect x="31" y="10" width="1" height="1" fill="#0a0a12" />
  <rect x="25" y="11" width="1" height="1" fill="#0a0a12" />
  <rect x="26" y="11" width="5" height="1" fill="#e5e7eb" />
  <rect x="31" y="11" width="1" height="1" fill="#0a0a12" />
  <rect x="26" y="12" width="5" height="1" fill="#0a0a12" />
</svg>