<svg xmlns="http://www.w3.org/2000/svg" viewBox="0 0 32 32" width="32" height="32" style="image-rendering: pixelated; shape-rendering: crispEdges;">

  <rect x="10" y="3" width="12" height="1" fill="#06080c" />
  <rect x="9" y="4" width="1" height="1" fill="#06080c" />
  <rect x="10" y="4" width="12" height="1" fill="#f1c40f" />
  <rect x="22" y="4" width="1" height="1" fill="#06080c" />
  <rect x="9" y="5" width="1" height="1" fill="#06080c" />
  <rect x="10" y="5" width="12" height="1" fill="#f1c40f" />
  <rect x="22" y="5" width="1" height="1" fill="#06080c" />
  <rect x="9" y="6" width="1" height="1" fill="#06080c" />
  <rect x="10" y="6" width="2" height="1" fill="#f1c40f" />
  <rect x="12" y="6" width="8" height="1" fill="#ffd1a4" />
  <rect x="20" y="6" width="2" height="1" fill="#f1c40f" />
  <rect x="22" y="6" width="1" height="1" fill="#06080c" />
  <rect x="9" y="7" width="1" height="1" fill="#06080c" />
  <rect x="10" y="7" width="2" height="1" fill="#f1c40f" />
  <rect x="12" y="7" width="8" height="1" fill="#ffd1a4" />
  <rect x="20" y="7" width="2" height="1" fill="#f1c40f" />
  <rect x="22" y="7" width="1" height="1" fill="#06080c" />
  <rect x="9" y="8" width="1" height="1" fill="#06080c" />
  <rect x="10" y="8" width="2" height="1" fill="#f1c40f" />
  <rect x="12" y="8" width="1" height="1" fill="#ffd1a4" />
  <rect x="13" y="8" width="1" height="1" fill="#4a5a6a" />
  <rect x="14" y="8" width="4" height="1" fill="#ffd1a4" />
  <rect x="18" y="8" width="1" height="1" fill="#4a5a6a" />
  <rect x="19" y="8" width="1" height="1" fill="#ffd1a4" />
  <rect x="20" y="8" width="2" height="1" fill="#f1c40f" />
  <rect x="22" y="8" width="1" height="1" fill="#06080c" />
  <rect x="9" y="9" width="1" height="1" fill="#06080c" />
  <rect x="10" y="9" width="2" height="1" fill="#f1c40f" />
  <rect x="12" y="9" width="8" height="1" fill="#ffd1a4" />
  <rect x="20" y="9" width="2" height="1" fill="#f1c40f" />
  <rect x="22" y="9" width="1" height="1" fill="#06080c" />
  <rect x="9" y="10" width="1" height="1" fill="#06080c" />
  <rect x="10" y="10" width="2" height="1" fill="#f1c40f" />
  <rect x="12" y="10" width="8" height="1" fill="#ffd1a4" />
  <rect x="20" y="10" width="2" height="1" fill="#f1c40f" />
  <rect x="22" y="10" width="1" height="1" fill="#06080c" />
  <rect x="9" y="11" width="1" height="1" fill="#06080c" />
  <rect x="10" y="11" width="12" height="1" fill="#f1c40f" />
  <rect x="22" y="11" width="1" height="1" fill="#06080c" />
  <rect x="8" y="12" width="2" height="1" fill="#06080c" />
  <rect x="10" y="12" width="12" height="1" fill="#f1c40f" />
  <rect x="22" y="12" width="2" height="1" fill="#06080c" />
  <rect x="7" y="13" width="1" height="1" fill="#06080c" />
  <rect x="8" y="13" width="4" height="1" fill="#b7950b" />
  <rect x="12" y="13" width="8" height="1" fill="#f1c40f" />
  <rect x="20" y="13" width="4" height="1" fill="#b7950b" />
  <rect x="24" y="13" width="1" height="1" fill="#06080c" />
  <rect x="7" y="14" width="1" height="1" fill="#06080c" />
  <rect x="8" y="14" width="2" height="1" fill="#b7950b" />
  <rect x="10" y="14" width="4" height="1" fill="#f1c40f" />
  <rect x="14" y="14" width="4" height="1" fill="#b7950b" />
  <rect x="18" y="14" width="4" height="1" fill="#f1c40f" />
  <rect x="22" y="14" width="2" height="1" fill="#b7950b" />
  <rect x="24" y="14" width="1" height="1" fill="#06080c" />
  <rect x="3" y="15" width="5" height="1" fill="#06080c" />
  <rect x="8" y="15" width="6" height="1" fill="#f1c40f" />
  <rect x="14" y="15" width="4" height="1" fill="#b7950b" />
  <rect x="18" y="15" width="4" height="1" fill="#f1c40f" />
  <rect x="22" y="15" width="2" height="1" fill="#b7950b" />
  <rect x="24" y="15" width="1" height="1" fill="#06080c" />
  <rect x="2" y="16" width="1" height="1" fill="#06080c" />
  <rect x="3" y="16" width="3" height="1" fill="#d5dbdb" />
  <rect x="6" y="16" width="2" height="1" fill="#ffd1a4" />
  <rect x="8" y="16" width="6" height="1" fill="#f1c40f" />
  <rect x="14" y="16" width="4" height="1" fill="#b7950b" />
  <rect x="18" y="16" width="4" height="1" fill="#f1c40f" />
  <rect x="22" y="16" width="2" height="1" fill="#b7950b" />
  <rect x="24" y="16" width="1" height="1" fill="#06080c" />
  <rect x="2" y="17" width="1" height="1" fill="#06080c" />
  <rect x="3" y="17" width="3" height="1" fill="#d5dbdb" />
  <rect x="6" y="17" width="2" height="1" fill="#ffd1a4" />
  <rect x="8" y="17" width="6" height="1" fill="#f1c40f" />
  <rect x="14" y="17" width="4" height="1" fill="#b7950b" />
  <rect x="18" y="17" width="4" height="1" fill="#f1c40f" />
  <rect x="22" y="17" width="2" height="1" fill="#b7950b" />
  <rect x="24" y="17" width="1" height="1" fill="#06080c" />
  <rect x="3" y="18" width="2" height="1" fill="#06080c" />
  <rect x="5" y="18" width="1" height="1" fill="#4a5a6a" />
  <rect x="6" y="18" width="2" height="1" fill="#ffd1a4" />
  <rect x="8" y="18" width="2" height="1" fill="#b7950b" />
  <rect x="10" y="18" width="4" height="1" fill="#f1c40f" />
  <rect x="14" y="18" width="4" height="1" fill="#b7950b" />
  <rect x="18" y="18" width="4" height="1" fill="#f1c40f" />
  <rect x="22" y="18" width="2" height="1" fill="#b7950b" />
  <rect x="24" y="18" width="1" height="1" fill="#06080c" />
  <rect x="4" y="19" width="1" height="1" fill="#06080c" />
  <rect x="5" y="19" width="1" height="1" fill="#4a5a6a" />
  <rect x="6" y="19" width="2" height="1" fill="#06080c" />
  <rect x="8" y="19" width="2" height="1" fill="#b7950b" />
  <rect x="10" y="19" width="4" height="1" fill="#f1c40f" />
  <rect x="14" y="19" width="4" height="1" fill="#b7950b" />
  <rect x="18" y="19" width="2" height="1" fill="#f1c40f" />
  <rect x="20" y="19" width="2" height="1" fill="#ffd1a4" />
  <rect x="22" y="19" width="2" height="1" fill="#b7950b" />
  <rect x="24" y="19" width="1" height="1" fill="#06080c" />
  <rect x="5" y="20" width="1" height="1" fill="#06080c" />
  <rect x="7" y="20" width="1" height="1" fill="#06080c" />
  <rect x="8" y="20" width="2" height="1" fill="#b7950b" />
  <rect x="10" y="20" width="4" height="1" fill="#f1c40f" />
  <rect x="14" y="20" width="4" height="1" fill="#b7950b" />
  <rect x="18" y="20" width="2" height="1" fill="#f1c40f" />
  <rect x="20" y="20" width="2" height="1" fill="#ffd1a4" />
  <rect x="22" y="20" width="2" height="1" fill="#b7950b" />
  <rect x="24" y="20" width="1" height="1" fill="#06080c" />
  <rect x="7" y="21" width="1" height="1" fill="#06080c" />
  <rect x="8" y="21" width="2" height="1" fill="#b7950b" />
  <rect x="10" y="21" width="12" height="1" fill="#f1c40f" />
  <rect x="22" y="21" width="2" height="1" fill="#b7950b" />
  <rect x="24" y="21" width="1" height="1" fill="#06080c" />
  <rect x="7" y="22" width="1" height="1" fill="#06080c" />
  <rect x="8" y="22" width="2" height="1" fill="#b7950b" />
  <rect x="10" y="22" width="3" height="1" fill="#f1c40f" />
  <rect x="13" y="22" width="6" height="1" fill="#06080c" />
  <rect x="19" y="22" width="3" height="1" fill="#f1c40f" />
  <rect x="22" y="22" width="2" height="1" fill="#b7950b" />
  <rect x="24" y="22" width="1" height="1" fill="#06080c" />
  <rect x="7" y="23" width="1" height="1" fill="#06080c" />
  <rect x="8" y="23" width="2" height="1" fill="#b7950b" />
  <rect x="10" y="23" width="3" height="1" fill="#f1c40f" />
  <rect x="13" y="23" width="1" height="1" fill="#06080c" />
  <rect x="18" y="23" width="1" height="1" fill="#06080c" />
  <rect x="19" y="23" width="3" height="1" fill="#f1c40f" />
  <rect x="22" y="23" width="2" height="1" fill="#b7950b" />
  <rect x="24" y="23" width="1" height="1" fill="#06080c" />
  <rect x="7" y="24" width="1" height="1" fill="#06080c" />
  <rect x="8" y="24" width="2" height="1" fill="#b7950b" />
  <rect x="10" y="24" width="3" height="1" fill="#f1c40f" />
  <rect x="13" y="24" width="1" height="1" fill="#06080c" />
  <rect x="18" y="24" width="1" height="1" fill="#06080c" />
  <rect x="19" y="24" width="3" height="1" fill="#f1c40f" />
  <rect x="22" y="24" width="2" height="1" fill="#b7950b" />
  <rect x="24" y="24" width="1" height="1" fill="#06080c" />
  <rect x="7" y="25" width="1" height="1" fill="#06080c" />
  <rect x="8" y="25" width="2" height="1" fill="#b7950b" />
  <rect x="10" y="25" width="3" height="1" fill="#f1c40f" />
  <rect x="13" y="25" width="1" height="1" fill="#06080c" />
  <rect x="18" y="25" width="1" height="1" fill="#06080c" />
  <rect x="19" y="25" width="3" height="1" fill="#f1c40f" />
  <rect x="22" y="25" width="2" height="1" fill="#b7950b" />
  <rect x="24" y="25" width="1" height="1" fill="#06080c" />
  <rect x="8" y="26" width="2" height="1" fill="#06080c" />
  <rect x="10" y="26" width="3" height="1" fill="#f1c40f" />
  <rect x="13" y="26" width="1" height="1" fill="#06080c" />
  <rect x="18" y="26" width="1" height="1" fill="#06080c" />
  <rect x="19" y="26" width="3" height="1" fill="#f1c40f" />
  <rect x="22" y="26" width="2" height="1" fill="#06080c" />
  <rect x="9" y="27" width="1" height="1" fill="#06080c" />
  <rect x="10" y="27" width="3" height="1" fill="#f1c40f" />
  <rect x="13" y="27" width="1" height="1" fill="#06080c" />
  <rect x="18" y="27" width="1" height="1" fill="#06080c" />
  <rect x="19" y="27" width="3" height="1" fill="#f1c40f" />
  <rect x="22" y="27" width="1" height="1" fill="#06080c" />
  <rect x="8" y="28" width="1" height="1" fill="#06080c" />
  <rect x="9" y="28" width="4" height="1" fill="#4a5a6a" />
  <rect x="13" y="28" width="1" height="1" fill="#06080c" />
  <rect x="18" y="28" width="1" height="1" fill="#06080c" />
  <rect x="19" y="28" width="4" height="1" fill="#4a5a6a" />
  <rect x="23" y="28" width="1" height="1" fill="#06080c" />
  <rect x="8" y="29" width="1" height="1" fill="#06080c" />
  <rect x="9" y="29" width="4" height="1" fill="#4a5a6a" />
  <rect x="13" y="29" width="1" height="1" fill="#06080c" />
  <rect x="18" y="29" width="1" height="1" fill="#06080c" />
  <rect x="19" y="29" width="4" height="1" fill="#4a5a6a" />
  <rect x="23" y="29" width="1" height="1" fill="#06080c" />
  <rect x="9" y="30" width="4" height="1" fill="#06080c" />
  <rect x="19" y="30" width="4" height="1" fill="#06080c" />
</svg>